<svg width="116" height="116" viewBox="0 0 116 116" fill="none" xmlns="http://www.w3.org/2000/svg">
<g id="trace (2) 1" clip-path="url(#clip0_42_282)">
<path id="Vector" fill-rule="evenodd" clip-rule="evenodd" d="M55.9041 16.0539C55.7172 16.0799 55.1653 16.2018 54.6776 16.3247C49.1581 17.7166 44.8718 22.4024 43.9069 28.0993C43.7451 29.0545 43.7244 30.7297 43.7295 42.4294L43.7352 55.6777L44.0022 56.9238C44.5939 59.6837 45.8352 61.9271 47.9202 64.0039C50.6244 66.6976 54.1466 68.1953 57.7774 68.1953C59.5348 68.1953 60.6124 68.036 62.0704 67.5606C64.3005 66.8333 66.0049 65.814 67.7087 64.1886C69.8918 62.106 71.2013 59.8622 71.9094 56.9913L72.2054 55.791L72.2462 42.877C72.2744 33.9285 72.2485 29.6272 72.1617 28.8697C71.5306 23.3607 67.7563 18.5929 62.5437 16.7201C60.9376 16.1429 59.8618 15.9711 57.9728 15.9896C57.0219 15.9989 56.091 16.0278 55.9041 16.0539ZM36.3631 50.8608C36.145 50.9785 35.8392 51.2661 35.6834 51.4998C35.4062 51.9158 35.4005 51.9679 35.4118 53.9711C35.4263 56.5222 35.7281 58.3491 36.5548 60.8887C38.6713 67.3907 44.2748 72.9238 50.9513 75.1042C52.1759 75.5042 55.0204 76.125 55.6285 76.125C55.8431 76.125 55.8475 76.3019 55.8475 84.9609V93.7969L49.702 93.7987L43.5565 93.8006L43.1034 94.0554C42.5091 94.3895 42.2542 94.9103 42.254 95.7909C42.2537 96.6494 42.5453 97.1408 43.2733 97.5085L43.7813 97.7651L58.0556 97.7351C72.279 97.7052 72.3315 97.7043 72.783 97.4687C73.4667 97.1119 73.7459 96.6248 73.7459 95.7892C73.7459 94.8965 73.484 94.3961 72.8382 94.0546L72.3509 93.7969H66.1949H60.0389V84.9609V76.125L60.3504 76.1123C61.3373 76.0722 63.3422 75.6608 64.7531 75.2089C66.5564 74.6312 69.1013 73.4965 69.3284 73.1689C69.4093 73.0522 70.8787 72.0533 70.929 72.0809C70.9518 72.0933 70.9593 72.0838 70.9457 72.0598C70.932 72.0358 71.2476 71.7687 71.6471 71.4663C72.0465 71.1638 73.1374 70.1742 74.0712 69.2671C75.4212 67.9555 75.9515 67.3462 76.66 66.2922C78.2072 63.9907 79.2222 61.741 79.8645 59.1895C80.3004 57.4577 80.4572 55.881 80.4117 53.686C80.3733 51.8298 80.3691 51.8028 80.0555 51.392C79.5881 50.7798 79.1714 50.6039 78.3181 50.6582C77.713 50.6968 77.5466 50.756 77.2495 51.0384C76.6684 51.5909 76.5754 51.8927 76.4546 53.6149C76.3925 54.5003 76.2865 55.6324 76.2191 56.1309C75.1277 64.1958 68.6675 70.7956 60.6911 71.9943C59.2301 72.2139 56.4149 72.2084 55.1112 71.9835C48.3141 70.8113 42.5929 65.9495 40.4552 59.5293C39.9312 57.9557 39.6462 56.3163 39.5369 54.2486C39.4328 52.2795 39.3068 51.7455 38.8215 51.2184C38.2747 50.6243 37.1139 50.4555 36.3631 50.8608Z" fill="#171718"/>
</g>
<defs>
<clipPath id="clip0_42_282">
<rect width="116" height="116" fill="white"/>
</clipPath>
</defs>
</svg>
