<svg width="82" height="92" viewBox="0 0 82 92" fill="currentColor" stroke="currentColor" xmlns="http://www.w3.org/2000/svg">
<g id="riff-tv-logo-cropped 2" clip-path="url(#clip0_41_265)">
<path id="Vector" fill-rule="evenodd" clip-rule="evenodd" d="M17.8919 0.229125C16.901 0.694394 16.5142 1.82453 16.9794 2.89563C17.0968 3.16634 21.1873 8.7563 26.069 15.3178C30.9509 21.8793 34.9338 27.2572 34.9202 27.2687C34.9064 27.2802 29.1263 27.3375 22.0755 27.3961C8.08485 27.5124 8.04875 27.5147 5.88034 28.4221C3.79961 29.2927 2.34941 30.7127 1.20869 32.9965C0.0710035 35.2739 0.153231 33.1838 0.153231 59.8258C0.153231 86.5408 0.0673627 84.4392 1.25253 86.7257C2.43709 89.0112 4.60156 90.6762 7.38531 91.4437L8.64907 91.792H40.8877H73.1264L74.4918 91.4419C78.8967 90.3125 81.3895 87.4477 81.843 82.9933C82.0478 80.9807 82.0533 39.03 81.8489 36.912C81.6807 35.1682 81.452 34.3094 80.8209 33.0506C79.2081 29.8337 76.661 27.9905 73.1264 27.4828C72.4912 27.3915 67.0742 27.3291 59.6458 27.3273C48.9712 27.3247 47.2388 27.2936 47.31 27.1067C47.3555 26.987 51.3032 21.6358 56.0827 15.215C60.8622 8.79408 64.8988 3.29987 65.0528 3.00544C65.4228 2.29882 65.3265 1.29288 64.8378 0.758479C63.9391 -0.224521 62.6938 -0.253429 61.6907 0.685522C61.361 0.994019 58.8883 4.20609 56.1957 7.82332C53.5031 11.4405 49.1222 17.3116 46.4605 20.87L41.621 27.34L40.9616 27.2938L40.3023 27.2478L33.2735 17.765C21.5992 2.01449 20.6519 0.760467 20.1791 0.431169C19.4999 -0.0420531 18.6326 -0.118527 17.8919 0.229125ZM18.1985 0.261242C17.1727 0.565304 16.6276 1.85298 17.1111 2.83016C17.3253 3.26316 22.4416 10.2067 31.3715 22.1841C33.4387 24.9566 35.0772 27.2764 35.0126 27.3389C34.9479 27.4015 29.1604 27.4988 22.1514 27.555C7.82694 27.6702 7.72575 27.6777 5.43066 28.7854C3.79218 29.5763 2.31876 31.084 1.46144 32.8474C0.209061 35.4229 0.304942 33.1857 0.304942 59.8258C0.304942 85.6025 0.258367 84.1675 1.1609 86.1953C2.24397 88.6284 4.22805 90.2945 7.13195 91.209L8.49736 91.6391H40.5843C65.9671 91.6391 72.8846 91.5982 73.6924 91.4439C77.9391 90.6323 80.6108 88.2237 81.4995 84.4058C81.758 83.2956 81.774 81.869 81.774 59.9023C81.774 33.6803 81.8468 35.3998 80.6367 33.0422C79.4057 30.6441 77.7445 29.1 75.4392 28.211C73.6392 27.5168 72.8118 27.4784 59.6573 27.4778C49.2913 27.4773 47.237 27.4428 47.1703 27.2676C47.1243 27.1465 50.786 22.0917 55.8403 15.2994C60.6525 8.83217 64.7277 3.2572 64.8964 2.91077C65.6492 1.36293 64.3399 -0.196226 62.6762 0.266902C62.3746 0.350871 61.9632 0.571269 61.7619 0.756642C61.5605 0.941863 58.6506 4.77582 55.2953 9.27633C51.9399 13.7768 47.5134 19.7129 45.4585 22.4677L41.7221 27.4763L41.0056 27.4767L40.2891 27.4772L34.4835 19.6386C23.2153 4.42434 20.4672 0.795797 20.0182 0.538384C19.4195 0.195168 18.7603 0.0946816 18.1985 0.261242ZM31.1782 33.7582C27.5214 33.9669 27.3305 34.0254 30.6472 33.9204C35.8691 33.7554 50.1697 33.8238 53.1005 34.0278C64.7478 34.8391 68.0474 35.4039 70.5013 37.0069C73.0615 38.6794 74.1171 40.9853 74.7855 46.3663C75.9082 55.403 75.5527 71.1749 74.0961 76.9543C73.666 78.6612 73.0299 79.7773 71.8488 80.8976C69.5107 83.1154 66.5788 83.8601 57.576 84.5233C44.0059 85.5228 25.0028 85.1285 16.4625 83.6703C12.0284 82.9132 9.35468 81.0188 8.2484 77.8504C6.59869 73.1262 6.04449 56.4502 7.21525 46.7625C7.85911 41.4348 8.72659 39.1637 10.7325 37.5533C13.0974 35.6547 16.0854 35.0036 26.02 34.2219C27.0626 34.1398 27.3247 34.0898 26.7786 34.0771C25.9586 34.0581 22.1056 34.3698 19.4206 34.6725C14.4381 35.2343 11.9506 36.1235 10.0762 38.0132C9.52323 38.5707 8.88255 39.4017 8.6521 39.8599C7.84894 41.4577 7.24407 44.5222 6.74888 49.5018C6.4843 52.1632 6.38645 62.183 6.58686 66.0967C6.89362 72.0857 7.40959 76.1073 8.10913 77.9636C9.07098 80.5153 11.1702 82.3877 14.0747 83.2839C18.7345 84.722 35.7391 85.6309 48.7767 85.1389C59.2357 84.7441 65.5342 84.0996 68.4191 83.129C71.6668 82.0362 73.6786 79.7536 74.4138 76.3271C75.9247 69.2853 76.0032 51.3165 74.5555 43.8427C73.9104 40.5122 73.1432 38.9346 71.4967 37.5531C68.9496 35.4161 66.3132 34.8551 54.6176 33.961C50.9034 33.6771 35.008 33.5396 31.1782 33.7582Z" />
<path id="Vector_2" fill-rule="evenodd" clip-rule="evenodd" d="M17.9403 0.312313C17.9911 0.395058 17.9174 0.414024 17.7689 0.356515C17.6249 0.300842 17.5471 0.318737 17.5947 0.396435C17.6841 0.542348 17.4104 0.78003 17.145 0.787065C17.0616 0.789207 17.0135 0.962344 17.0381 1.17173C17.0643 1.39504 17.0329 1.47946 16.9622 1.37576C16.8958 1.27849 16.8416 1.56358 16.8416 2.01126C16.8416 2.48571 16.8944 2.74985 16.9686 2.64676C17.0453 2.5397 17.0664 2.60379 17.022 2.80904C16.9775 3.01415 17.0173 3.13482 17.1227 3.11494C17.2185 3.09674 17.2969 3.21956 17.2969 3.3878C17.297 3.55742 17.3985 3.69385 17.5245 3.69416C17.6504 3.69431 17.752 3.83074 17.752 4.00005C17.7522 4.16799 17.8546 4.30717 17.9796 4.30916C18.1047 4.31115 18.1976 4.43091 18.1862 4.57514C18.1748 4.71952 18.2225 4.80196 18.2924 4.75837C18.4155 4.68174 18.7057 5.09287 18.7104 5.35058C18.7116 5.42079 18.7635 5.52403 18.8255 5.58001C18.8876 5.63614 18.8801 5.57878 18.809 5.4526C18.6976 5.25484 18.7151 5.25209 18.9364 5.43302C19.2323 5.67499 19.287 5.98639 19.0035 5.81463C18.8747 5.73663 18.8806 5.78267 19.022 5.95856C19.2661 6.26185 19.4043 6.30009 19.2667 6.02616C19.2139 5.92108 19.276 5.96559 19.4046 6.12512C19.5333 6.2848 19.5961 6.4847 19.544 6.56943C19.492 6.65432 19.5249 6.67665 19.6172 6.61914C19.7733 6.52186 20.1019 6.93253 20.0504 7.16058C20.0379 7.21656 20.0897 7.3198 20.1656 7.39C20.2468 7.46495 20.2578 7.42288 20.1923 7.28798C20.131 7.1618 20.1862 7.18918 20.3149 7.3487C20.4435 7.50838 20.5118 7.69926 20.4666 7.77314C20.4212 7.84701 20.4746 7.88846 20.5852 7.86536C20.6989 7.8415 20.7862 7.95621 20.7862 8.1292C20.7864 8.29882 20.8879 8.43525 21.0138 8.43556C21.1397 8.43571 21.2414 8.57214 21.2414 8.74145C21.2415 8.91061 21.343 9.04704 21.4689 9.04735C21.5949 9.0475 21.6965 9.18393 21.6965 9.35325C21.6967 9.52241 21.7982 9.65884 21.9241 9.65914C22.05 9.6593 22.1516 9.79572 22.1516 9.96504C22.1518 10.1342 22.2533 10.2706 22.3792 10.2709C22.5051 10.2711 22.6068 10.4075 22.6068 10.5768C22.6069 10.746 22.7084 10.8824 22.8344 10.8827C22.9603 10.8829 23.0619 11.0193 23.0619 11.1886C23.0621 11.3578 23.1636 11.4942 23.2895 11.4945C23.4154 11.4947 23.5171 11.6311 23.5171 11.8004C23.5172 11.9696 23.6187 12.106 23.7446 12.1063C23.8705 12.1065 23.9722 12.2429 23.9722 12.4122C23.9723 12.5814 24.0738 12.7178 24.1998 12.7181C24.3257 12.7183 24.4273 12.8547 24.4273 13.024C24.4275 13.1932 24.529 13.3296 24.6549 13.3299C24.7808 13.3301 24.8825 13.4665 24.8825 13.6358C24.8826 13.805 24.9841 13.9414 25.11 13.9417C25.2359 13.9418 25.3376 14.0783 25.3376 14.2476C25.3377 14.4168 25.4392 14.5532 25.5652 14.5535C25.6911 14.5536 25.7927 14.6901 25.7927 14.8594C25.7929 15.0285 25.8944 15.165 26.0203 15.1653C26.1462 15.1654 26.2479 15.3019 26.2479 15.4712C26.248 15.6403 26.3495 15.7768 26.4754 15.7771C26.6013 15.7772 26.703 15.9137 26.703 16.083C26.7031 16.2521 26.8046 16.3886 26.9306 16.3889C27.0565 16.389 27.1581 16.5255 27.1581 16.6948C27.1583 16.8639 27.2598 17.0004 27.3857 17.0007C27.5109 17.0008 27.614 17.1164 27.6151 17.2575C27.6161 17.3985 27.6782 17.5704 27.7531 17.6394C27.8319 17.712 27.8423 17.6681 27.7779 17.5355C27.7166 17.4093 27.7718 17.4367 27.9004 17.5962C28.0291 17.7559 28.1013 17.9404 28.061 18.0063C28.0205 18.0722 28.0673 18.1759 28.165 18.2368C28.2866 18.3125 28.302 18.2796 28.2143 18.1328C28.1047 17.9493 28.1244 17.9494 28.3495 18.1336C28.4944 18.2522 28.5787 18.4393 28.5369 18.5493C28.495 18.6592 28.5366 18.7966 28.6293 18.8542C28.7374 18.9217 28.7582 18.8822 28.6872 18.7446C28.6265 18.6264 28.6821 18.6603 28.8107 18.8198C28.9394 18.9795 29.0116 19.164 28.9712 19.2299C28.9307 19.2958 28.9776 19.3995 29.0753 19.4604C29.1968 19.5361 29.2123 19.5032 29.1246 19.3564C29.0149 19.1728 29.0339 19.1724 29.2548 19.353C29.3971 19.4694 29.4955 19.6744 29.4735 19.8085C29.4515 19.9426 29.536 20.054 29.6612 20.0561C29.7864 20.0583 29.8889 20.1974 29.8889 20.3655C29.8891 20.5347 29.9906 20.6711 30.1165 20.6714C30.2424 20.6716 30.3441 20.808 30.3441 20.9773C30.3442 21.1465 30.4457 21.2829 30.5716 21.2832C30.6976 21.2834 30.7992 21.4198 30.7992 21.5891C30.7994 21.7583 30.9008 21.8947 31.0268 21.895C31.1527 21.8952 31.2543 22.0316 31.2543 22.2009C31.2545 22.3701 31.356 22.5065 31.4819 22.5068C31.6078 22.507 31.7095 22.6434 31.7095 22.8127C31.7096 22.9819 31.8111 23.1183 31.937 23.1186C32.063 23.1188 32.1646 23.2552 32.1646 23.4245C32.1648 23.5937 32.2662 23.7301 32.3922 23.7304C32.5181 23.7305 32.6197 23.867 32.6197 24.0363C32.6199 24.2042 32.7077 24.3417 32.815 24.3417C33.047 24.3417 33.3147 24.733 33.2052 24.9118C33.1627 24.9809 33.2184 25.0187 33.329 24.9956C33.4426 24.9717 33.53 25.0864 33.53 25.2594C33.5302 25.429 33.6316 25.5655 33.7576 25.5658C33.8835 25.5659 33.9851 25.7024 33.9851 25.8717C33.9853 26.0408 34.0868 26.1773 34.2127 26.1776C34.3379 26.1777 34.4433 26.3154 34.4473 26.4835C34.451 26.6514 34.5343 26.7724 34.6323 26.7522C34.8396 26.7095 35.1788 27.2713 35.0095 27.3767C34.9467 27.4157 29.1947 27.4938 22.2274 27.5503C15.2128 27.6072 9.16698 27.7198 8.67998 27.8025C8.19633 27.8848 7.65017 27.9096 7.46629 27.8576C7.192 27.78 7.17288 27.7945 7.35964 27.9389C7.53942 28.0778 7.4757 28.096 7.05622 28.0256C6.65115 27.9576 6.57924 27.9758 6.75279 28.1024C6.93652 28.2366 6.91467 28.254 6.63886 28.193C6.45089 28.1515 6.3324 28.1749 6.37549 28.2451C6.48138 28.4178 5.89016 28.5955 5.66866 28.4576C5.55078 28.3842 5.53349 28.4149 5.61648 28.5501C5.70735 28.6985 5.67079 28.7258 5.48024 28.652C5.30486 28.5842 5.2554 28.6091 5.32853 28.7284C5.4018 28.8479 5.35234 28.8728 5.17682 28.8049C5.00144 28.7372 4.95198 28.7621 5.0251 28.8814C5.09747 28.9995 5.05014 29.0262 4.8831 28.9617C4.72851 28.9019 4.64628 28.9358 4.66858 29.0504C4.68846 29.1526 4.58787 29.2269 4.44511 29.2159C4.30235 29.2047 4.19995 29.2736 4.21754 29.3688C4.23514 29.464 4.13274 29.5427 3.98982 29.5438C3.84706 29.5447 3.64575 29.6307 3.54228 29.735C3.43896 29.8392 3.41408 29.9243 3.48705 29.9243C3.56003 29.9243 3.46141 30.0943 3.26783 30.302C3.07425 30.5097 2.86671 30.649 2.80648 30.6115C2.7464 30.5741 2.56859 30.6912 2.41142 30.8719C2.25425 31.0526 2.21101 31.1502 2.31524 31.0887C2.59818 30.9219 2.54432 31.2311 2.24818 31.4734C2.02956 31.6521 2.0106 31.6514 2.11998 31.4684C2.20524 31.3257 2.19174 31.2888 2.07978 31.3587C1.98708 31.4164 1.94703 31.5577 1.99088 31.6727C2.03457 31.7877 1.98693 31.9338 1.88498 31.9973C1.75845 32.076 1.73858 32.0491 1.82217 31.9127C1.90167 31.783 1.88559 31.7495 1.77636 31.8175C1.68366 31.8752 1.65059 32.0347 1.70293 32.1721C1.76589 32.3379 1.73888 32.3848 1.62207 32.3122C1.50373 32.2385 1.479 32.2883 1.54621 32.4651C1.61357 32.6421 1.58884 32.6919 1.47035 32.6181C1.35202 32.5444 1.32729 32.5942 1.3945 32.771C1.46186 32.948 1.43713 32.9978 1.31864 32.924C1.20031 32.8503 1.17558 32.9001 1.24279 33.0769C1.31015 33.2539 1.28542 33.3037 1.16693 33.2299C1.0486 33.1561 1.02387 33.206 1.09108 33.3828C1.16435 33.5749 1.1372 33.6118 0.990036 33.5202C0.857744 33.4376 0.825429 33.4541 0.89552 33.5683C1.05982 33.8363 0.665526 35.0281 0.492726 34.786C0.393659 34.6472 0.378791 34.6717 0.442358 34.8692C0.491968 35.0232 0.485595 35.5394 0.428552 36.0163C0.356792 36.6151 0.29808 36.7741 0.238913 36.5303C0.191882 36.3361 0.153348 46.819 0.153348 59.8258C0.153348 72.8325 0.202959 83.3154 0.263643 83.1212C0.329638 82.9098 0.353303 83.0956 0.322658 83.584C0.294439 84.0328 0.321141 84.3185 0.382281 84.2189C0.44782 84.112 0.535358 84.2643 0.596195 84.5909C0.652783 84.8951 0.651113 85.2222 0.5924 85.318C0.52944 85.4206 0.552955 85.45 0.649899 85.3896C0.848792 85.2657 1.05163 85.8285 0.898252 86.0787C0.82543 86.1976 0.855923 86.215 0.990036 86.1313C1.1372 86.0397 1.16435 86.0766 1.09108 86.2687C1.02387 86.4455 1.0486 86.4954 1.16693 86.4216C1.28542 86.3478 1.31015 86.3976 1.24279 86.5746C1.17558 86.7514 1.20031 86.8013 1.31864 86.7275C1.43713 86.6537 1.46186 86.7035 1.3945 86.8805C1.33184 87.0454 1.35414 87.1059 1.45473 87.0432C1.5497 86.984 1.59537 87.0573 1.56684 87.2229C1.53817 87.39 1.61038 87.5041 1.74632 87.5064C1.87148 87.5085 1.97404 87.6477 1.97404 87.8158C1.97419 87.9837 2.05611 88.1212 2.15609 88.1212C2.40748 88.1212 2.66979 88.4097 2.71758 88.7385C2.73972 88.8898 2.8749 89.0308 3.01811 89.0521C3.32973 89.0981 3.75801 89.4326 3.64771 89.5436C3.52695 89.6654 3.88742 90.0404 4.0361 89.9479C4.22634 89.8292 4.80528 90.1749 4.70105 90.3449C4.65129 90.426 4.72638 90.4446 4.87339 90.3877C5.04892 90.3198 5.09838 90.3448 5.0251 90.4642C4.95198 90.5835 5.00144 90.6085 5.17682 90.5407C5.35234 90.4728 5.4018 90.4977 5.32853 90.6172C5.2554 90.7365 5.30486 90.7614 5.48024 90.6936C5.67079 90.6198 5.70735 90.6471 5.61648 90.7955C5.53683 90.9254 5.55109 90.9613 5.65622 90.8958C5.74649 90.8396 6.38702 90.9586 7.07973 91.1601C7.87136 91.3906 8.22773 91.5538 8.039 91.5997C7.87394 91.6398 8.14854 91.6467 8.64919 91.615C9.14983 91.5834 9.44218 91.6103 9.29881 91.6747C9.1556 91.7392 11.7499 91.7748 15.0638 91.754C18.378 91.7331 32.832 91.6834 47.1839 91.6435C61.5358 91.6035 73.5647 91.5535 73.9147 91.5323C74.3164 91.5079 74.4842 91.4452 74.3698 91.3623C74.2631 91.2849 74.4071 91.2675 74.7195 91.32C75.0558 91.3766 75.1736 91.3593 75.0407 91.273C74.8852 91.1722 74.9531 91.1098 75.3024 91.0326C75.5618 90.9751 75.8546 90.9783 75.9529 91.0395C76.0732 91.1146 76.0911 91.0847 76.0075 90.9485C75.9166 90.8001 75.9532 90.7727 76.1438 90.8466C76.3179 90.9139 76.3684 90.8893 76.2967 90.772C76.2228 90.6517 76.2965 90.625 76.5314 90.6869C76.7195 90.7365 76.833 90.7363 76.7835 90.6865C76.6382 90.5398 77.2825 90.1579 77.474 90.2773C77.5903 90.3497 77.6073 90.3183 77.5246 90.1837C77.4347 90.0369 77.4696 90.0078 77.6512 90.078C77.8057 90.1378 77.888 90.1039 77.8657 89.9893C77.8458 89.8872 77.9661 89.8004 78.133 89.7965C78.2999 89.7926 78.42 89.7087 78.4 89.6099C78.38 89.5112 78.4994 89.357 78.6655 89.2676C78.8315 89.1779 78.9674 89.1535 78.9674 89.2131C78.9674 89.2728 79.136 89.162 79.342 88.9669C79.548 88.7717 79.6786 88.5502 79.6324 88.4747C79.5275 88.3037 79.869 87.8684 80.0294 87.9683C80.094 88.0085 80.1374 87.9218 80.126 87.7754C80.1146 87.6292 80.1826 87.5239 80.277 87.5417C80.3715 87.5594 80.4398 87.4562 80.4287 87.3123C80.4178 87.1683 80.4915 87.0669 80.5928 87.087C80.7065 87.1095 80.7402 87.0266 80.6808 86.8707C80.6168 86.7023 80.6434 86.6546 80.7605 86.7275C80.8788 86.8013 80.9035 86.7514 80.8363 86.5746C80.769 86.3976 80.7937 86.3478 80.9122 86.4216C81.0305 86.4954 81.0553 86.4455 80.9881 86.2687C80.9242 86.1011 80.9471 86.0429 81.0515 86.1079C81.1572 86.1739 81.1845 86.0933 81.1292 85.8797C81.0744 85.6682 81.1015 85.5859 81.205 85.6503C81.3079 85.7144 81.3393 85.6259 81.2916 85.4065C81.2293 85.1196 81.2466 85.1005 81.396 85.2917C81.5486 85.4871 81.5618 85.4796 81.4851 85.2413C81.3553 84.838 81.5571 83.6849 81.7129 83.9391C81.7809 84.05 81.8332 73.1982 81.8291 59.8239C81.825 46.4497 81.7709 35.6422 81.7087 35.8074C81.6195 36.0441 81.5744 35.9741 81.4954 35.4753C81.4401 35.1275 81.4356 34.7171 81.4851 34.5631C81.552 34.3556 81.5375 34.3364 81.4292 34.4891C81.3174 34.6466 81.2596 34.6003 81.1827 34.2909C81.1273 34.0686 81.1288 33.8106 81.186 33.7175C81.2537 33.607 81.2197 33.5916 81.0891 33.6731C80.9419 33.7647 80.9148 33.7279 80.9881 33.5358C81.0553 33.359 81.0305 33.3091 80.9122 33.3828C80.7937 33.4567 80.769 33.4068 80.8363 33.2299C80.9035 33.0531 80.8788 33.0032 80.7605 33.0769C80.642 33.1508 80.6173 33.1009 80.6846 32.924C80.7518 32.7472 80.7271 32.6973 80.6088 32.771C80.4917 32.844 80.4651 32.7963 80.5291 32.6279C80.5884 32.472 80.5548 32.3891 80.4411 32.4116C80.3398 32.4316 80.2664 32.3282 80.2777 32.182C80.2891 32.0356 80.238 31.9537 80.164 31.9999C80.0418 32.0759 79.9657 31.8605 80.0115 31.5685C80.0213 31.5055 79.944 31.4711 79.8398 31.4921C79.7354 31.5132 79.65 31.3927 79.65 31.2244C79.6498 31.0562 79.5786 30.9185 79.4919 30.9185C79.2878 30.9185 78.1225 29.7726 78.1661 29.6149C78.1843 29.5489 78.0858 29.4022 77.9473 29.289C77.7352 29.1156 77.7153 29.1163 77.8215 29.2942C77.9088 29.4401 77.8827 29.4834 77.7369 29.4343C77.621 29.3955 77.5261 29.289 77.5261 29.1978C77.5261 29.1067 77.464 28.9748 77.3881 28.9046C77.3065 28.8294 77.2996 28.8637 77.3713 28.9883C77.4547 29.1335 77.4268 29.1752 77.2817 29.1221C77.1658 29.0796 77.0898 28.9623 77.1127 28.8615C77.1357 28.7606 77.0906 28.7177 77.0126 28.7664C76.8208 28.8858 76.3704 28.7008 76.4675 28.5423C76.5101 28.4729 76.4651 28.3663 76.3674 28.3054C76.2483 28.2312 76.2307 28.2615 76.314 28.3972C76.4053 28.5463 76.368 28.5727 76.1732 28.4973C76.0275 28.4409 75.8758 28.3949 75.8359 28.3949C75.7962 28.3949 75.8123 28.3153 75.8717 28.2182C75.9382 28.1101 75.9135 28.0832 75.808 28.1489C75.5422 28.3146 74.3601 27.9171 74.6002 27.7428C74.7356 27.6447 74.7064 27.6306 74.5051 27.697C74.3455 27.7496 73.7994 27.7424 73.2914 27.6811C72.554 27.5919 72.4581 27.5524 72.8154 27.4851C73.0616 27.4386 67.3952 27.4007 60.2233 27.4007C47.2851 27.4007 47.1839 27.3983 47.1839 27.0948C47.1839 26.925 47.2851 26.7889 47.4113 26.7889C47.5374 26.7889 47.6387 26.6528 47.6389 26.4835C47.6389 26.3142 47.7405 26.1777 47.8664 26.1776C47.9923 26.1773 48.0938 26.0408 48.094 25.8717C48.094 25.7024 48.1956 25.5659 48.3216 25.5658C48.4475 25.5655 48.549 25.429 48.5491 25.2594C48.5491 25.0912 48.6347 24.9708 48.7389 24.9918C48.8433 25.0129 48.9178 24.9785 48.9044 24.9153C48.8533 24.6713 49.12 24.272 49.2713 24.3662C49.359 24.4208 49.3904 24.4 49.3412 24.3199C49.2218 24.125 49.475 23.7299 49.7193 23.7299C49.8265 23.7299 49.9144 23.5924 49.9145 23.4245C49.9145 23.2552 50.0162 23.1188 50.1421 23.1186C50.268 23.1183 50.3695 22.9819 50.3697 22.8127C50.3697 22.6434 50.4713 22.507 50.5972 22.5068C50.7232 22.5065 50.8246 22.3701 50.8248 22.2009C50.8248 22.0316 50.9264 21.8952 51.0524 21.895C51.1783 21.8947 51.2798 21.7583 51.2799 21.5891C51.2799 21.421 51.3825 21.2818 51.5076 21.2797C51.6328 21.2776 51.7173 21.1662 51.6953 21.0321C51.6733 20.8979 51.7718 20.693 51.9141 20.5766C52.135 20.396 52.1539 20.3964 52.0443 20.58C51.9566 20.7268 51.972 20.7597 52.0936 20.684C52.1913 20.6231 52.2381 20.5194 52.1976 20.4535C52.1573 20.3876 52.2295 20.2031 52.3581 20.0434C52.4868 19.8839 52.5423 19.8499 52.4816 19.9682C52.4082 20.1106 52.4308 20.1456 52.5487 20.0722C52.6464 20.0113 52.6933 19.9076 52.6528 19.8417C52.6124 19.7758 52.6846 19.5913 52.8133 19.4316C52.9419 19.2721 52.9972 19.2447 52.9359 19.3709C52.8714 19.5035 52.8819 19.5474 52.9606 19.4748C53.0355 19.4058 53.0976 19.2339 53.0986 19.0928C53.0997 18.9518 53.203 18.8347 53.3282 18.8325C53.4533 18.8304 53.5382 18.7209 53.5168 18.5892C53.4954 18.4573 53.6307 18.218 53.8176 18.0572C54.1543 17.7677 54.1553 17.7679 53.9324 18.0708C53.726 18.3517 53.7285 18.3601 53.964 18.1744C54.1049 18.063 54.1872 17.8849 54.1467 17.7783C54.1062 17.6716 54.1955 17.4875 54.3453 17.3688C54.5995 17.1675 54.6026 17.1735 54.3902 17.4591C54.181 17.7402 54.1834 17.7486 54.4191 17.5626C54.5601 17.4513 54.6408 17.2689 54.5983 17.1574C54.556 17.0459 54.6047 16.9026 54.7066 16.8392C54.8332 16.7604 54.853 16.7873 54.7694 16.9237C54.6899 17.0534 54.706 17.0869 54.8153 17.0189C54.908 16.9612 54.9495 16.8239 54.9077 16.7139C54.8658 16.6039 54.9501 16.4169 55.095 16.2982C55.3202 16.114 55.3399 16.1139 55.2302 16.2974C55.1425 16.4442 55.158 16.4771 55.2795 16.4014C55.3772 16.3405 55.4223 16.2339 55.3796 16.1643C55.337 16.0948 55.4212 15.9071 55.5667 15.7471C55.7123 15.5871 55.7632 15.5628 55.6797 15.693C55.5489 15.8968 55.5635 15.9016 55.7845 15.7272C55.9255 15.6159 56.0097 15.4427 55.9714 15.3422C55.9332 15.2419 56.1156 14.92 56.3765 14.6269C56.6376 14.3339 56.7616 14.2318 56.652 14.4001C56.4801 14.6641 56.4829 14.6789 56.6714 14.509C56.7916 14.4005 56.8907 14.1941 56.8916 14.0501C56.8926 13.9061 56.9762 13.8047 57.0776 13.8247C57.1789 13.8447 57.2276 13.7716 57.1861 13.6621C57.1443 13.5526 57.2651 13.3298 57.4543 13.1669C57.7962 12.8726 57.797 12.8726 57.5735 13.1765C57.367 13.4573 57.3696 13.4657 57.6051 13.28C57.746 13.1687 57.8313 12.9966 57.7944 12.8977C57.7577 12.7987 57.9032 12.5112 58.1179 12.2588C58.3327 12.0064 58.4583 11.9032 58.3972 12.0294C58.333 12.162 58.3435 12.2059 58.4222 12.1332C58.4971 12.0643 58.5592 11.8923 58.5603 11.7513C58.5613 11.6103 58.6646 11.4931 58.7898 11.491C58.915 11.4889 58.9998 11.3794 58.9784 11.2477C58.957 11.1158 59.0923 10.8765 59.2792 10.7157C59.6159 10.4262 59.6169 10.4263 59.3941 10.7293C59.1876 11.0101 59.1902 11.0185 59.4256 10.8329C59.5666 10.7215 59.6543 10.5495 59.6201 10.4505C59.5861 10.3515 59.7342 10.064 59.9492 9.81163C60.1643 9.55927 60.2876 9.45603 60.2233 9.58221C60.1555 9.71543 60.1637 9.75902 60.2427 9.68606C60.3177 9.61708 60.3797 9.44517 60.3808 9.30415C60.3819 9.16313 60.4852 9.04597 60.6103 9.04383C60.7355 9.04169 60.82 8.93034 60.798 8.79621C60.776 8.66207 60.8745 8.45712 61.0168 8.34073C61.2405 8.1578 61.2574 8.16025 61.1413 8.35862C61.0257 8.55654 61.0426 8.55914 61.2639 8.3782C61.5418 8.15092 61.6159 7.97533 61.3689 8.1292C61.1126 8.28888 61.2011 7.9504 61.4739 7.72725C61.6952 7.54631 61.7127 7.54907 61.6013 7.74683C61.5255 7.88142 61.5282 7.9244 61.6081 7.85068C61.6831 7.7817 61.7451 7.60979 61.7462 7.46877C61.7473 7.32775 61.8504 7.21212 61.9756 7.21197C62.1015 7.21166 62.203 7.07523 62.2032 6.90607C62.2032 6.73676 62.3048 6.60033 62.4307 6.60018C62.5566 6.59987 62.6581 6.46344 62.6583 6.29428C62.6583 6.12496 62.7599 5.98853 62.8859 5.98838C63.0118 5.98808 63.1133 5.85165 63.1134 5.68249C63.1134 5.51317 63.2151 5.37674 63.341 5.37659C63.4669 5.37628 63.5684 5.23985 63.5686 5.07069C63.5686 4.90138 63.6702 4.76495 63.7961 4.76479C63.922 4.76449 64.0235 4.62806 64.0237 4.4589C64.0237 4.28958 64.1253 4.15315 64.2513 4.153C64.3772 4.1527 64.4787 4.01627 64.4788 3.8471C64.4788 3.67901 64.5586 3.54136 64.656 3.54121C64.7533 3.5409 64.8898 3.47804 64.9594 3.40156C65.0329 3.32065 65.0063 3.30842 64.8962 3.37235C64.6616 3.50832 64.6589 3.43124 64.8804 2.94088C64.9761 2.72936 65.1036 2.58681 65.1636 2.62428C65.2237 2.66175 65.2067 2.36702 65.1259 1.96951C65.045 1.57184 64.9643 1.12401 64.9464 0.97412C64.9285 0.824231 64.7894 0.583337 64.6371 0.438801C64.4849 0.294264 64.4136 0.270865 64.4787 0.386953C64.5597 0.531183 64.5304 0.57355 64.3863 0.520783C64.2704 0.478263 64.1875 0.381446 64.2023 0.305431C64.217 0.229415 63.8415 0.190108 63.3678 0.218097C62.0885 0.293501 61.9923 0.30849 62.0619 0.42213C62.1317 0.535924 61.6725 0.776818 61.4714 0.731698C61.4026 0.71625 61.381 0.760298 61.4235 0.829431C61.533 1.00823 61.2653 1.39947 61.0333 1.39947C60.926 1.39947 60.8382 1.53697 60.838 1.70491C60.838 1.87422 60.7364 2.01065 60.6105 2.0108C60.4846 2.01111 60.3831 2.14754 60.3829 2.3167C60.3829 2.48479 60.2804 2.62398 60.1552 2.62612C60.03 2.62826 59.9455 2.73961 59.9675 2.87374C59.9895 3.00788 59.8911 3.21283 59.7488 3.32922C59.525 3.51215 59.5081 3.5097 59.6242 3.31133C59.7398 3.11341 59.723 3.11081 59.5016 3.29175C59.2237 3.51903 59.1497 3.69461 59.3966 3.54075C59.6529 3.38107 59.5644 3.71955 59.2917 3.9427C59.0703 4.12364 59.0535 4.12103 59.1691 3.92312C59.2847 3.7252 59.2678 3.7226 59.0465 3.90354C58.7576 4.13985 58.6985 4.30396 58.9612 4.14031C59.0652 4.07546 59.1049 4.11706 59.0623 4.24599C59.0237 4.36284 58.8954 4.45997 58.7772 4.4618C58.6589 4.46379 58.581 4.57896 58.6042 4.71799C58.6455 4.96684 58.4038 5.21293 58.1071 5.22425C58.0237 5.22746 57.9742 5.3437 57.9974 5.48273C58.0205 5.62176 57.9587 5.78572 57.8601 5.84706C57.7401 5.92185 57.7214 5.89264 57.8037 5.7585C57.8832 5.6288 57.8671 5.5953 57.7579 5.66337C57.6652 5.72103 57.6236 5.85837 57.6655 5.96834C57.7073 6.07831 57.623 6.26537 57.4781 6.38406C57.2486 6.57188 57.2317 6.57004 57.3485 6.37029C57.4641 6.17238 57.4473 6.16978 57.226 6.35071C56.948 6.578 56.874 6.75358 57.121 6.59972C57.4142 6.41694 57.2689 6.78509 56.9339 7.07309C56.5986 7.36155 56.5974 7.3614 56.8201 7.05856C57.0266 6.77775 57.024 6.76934 56.7886 6.95501C56.6476 7.06636 56.5654 7.24455 56.6059 7.35115C56.6464 7.45776 56.561 7.64191 56.4161 7.76059C56.191 7.94474 56.1713 7.9449 56.2809 7.76136C56.3662 7.61866 56.3527 7.5818 56.2407 7.6517C56.148 7.70936 56.1065 7.8467 56.1483 7.95667C56.1902 8.06664 56.1019 8.2537 55.9522 8.37239C55.6987 8.57306 55.695 8.56663 55.9 8.28215C56.0884 8.0203 56.0887 8.0047 55.9017 8.17325C55.7815 8.28169 55.6824 8.48802 55.6815 8.63179C55.6805 8.77556 55.5775 8.89333 55.4523 8.89348C55.3264 8.89379 55.2249 9.03022 55.2247 9.19938C55.2247 9.36747 55.1222 9.50665 54.997 9.50879C54.8718 9.51094 54.7873 9.62228 54.8093 9.75642C54.8313 9.89055 54.7329 10.0955 54.5906 10.2119C54.3697 10.3925 54.3507 10.3921 54.4604 10.2085C54.5457 10.0658 54.5322 10.029 54.4202 10.0989C54.3275 10.1565 54.2859 10.2939 54.3278 10.4038C54.3697 10.5138 54.2814 10.7009 54.1317 10.8196C53.8781 11.0202 53.8745 11.0138 54.0795 10.7293C54.2679 10.4675 54.2682 10.4519 54.0811 10.6204C53.961 10.7289 53.8619 10.9352 53.861 11.079C53.8599 11.2227 53.7569 11.3405 53.6318 11.3407C53.5058 11.341 53.4043 11.4774 53.4042 11.6466C53.4042 11.8159 53.3025 11.9523 53.1766 11.9525C53.0507 11.9528 52.9492 12.0892 52.9491 12.2583C52.9491 12.4277 52.8474 12.5641 52.7215 12.5642C52.5956 12.5646 52.4941 12.701 52.4939 12.8701C52.4939 13.0395 52.3923 13.1759 52.2664 13.176C52.1404 13.1763 52.0389 13.3128 52.0388 13.4819C52.0388 13.6512 51.9371 13.7877 51.8112 13.7878C51.6853 13.7881 51.5838 13.9246 51.5837 14.0937C51.5837 14.263 51.482 14.3995 51.3561 14.3996C51.2302 14.3999 51.1287 14.5364 51.1285 14.7055C51.1285 14.8748 51.0269 15.0113 50.901 15.0114C50.775 15.0117 50.6735 15.1482 50.6734 15.3173C50.6734 15.4866 50.5717 15.6231 50.4458 15.6232C50.3199 15.6235 50.2184 15.7599 50.2183 15.9291C50.2183 16.0972 50.1157 16.2364 49.9905 16.2385C49.8654 16.2407 49.7809 16.352 49.8029 16.4861C49.8249 16.6203 49.7264 16.8252 49.5841 16.9416C49.4108 17.0833 49.3631 17.09 49.4394 16.962C49.6055 16.6833 49.4551 16.7281 49.2126 17.0296C49.0712 17.2055 49.0652 17.2515 49.194 17.1735C49.4776 17.0017 49.4228 17.3131 49.127 17.5551C48.9084 17.7337 48.8894 17.7331 48.9988 17.5501C49.0865 17.4032 49.071 17.3703 48.9495 17.4461C48.8518 17.5069 48.8049 17.6106 48.8454 17.6765C48.8858 17.7425 48.8136 17.9269 48.6849 18.0866C48.5563 18.2461 48.5007 18.2801 48.5614 18.1618C48.6324 18.0242 48.6116 17.9847 48.5035 18.0522C48.4108 18.1098 48.3692 18.2472 48.4111 18.3572C48.4529 18.4671 48.3686 18.6542 48.2237 18.7729C47.9986 18.957 47.9788 18.9572 48.0885 18.7736C48.1762 18.6268 48.1607 18.5939 48.0392 18.6696C47.9415 18.7305 47.8946 18.8342 47.9352 18.9001C47.9755 18.9661 47.9033 19.1505 47.7746 19.3102C47.646 19.4697 47.5839 19.5144 47.6367 19.4091C47.7743 19.1352 47.6361 19.1734 47.392 19.4767C47.2506 19.6526 47.2447 19.6987 47.3735 19.6207C47.6571 19.4489 47.6023 19.7603 47.3065 20.0023C47.0878 20.1809 47.0689 20.1803 47.1783 19.9972C47.266 19.8504 47.2505 19.8175 47.129 19.8932C47.0313 19.9541 46.9821 20.054 47.0197 20.1153C47.1223 20.2826 46.8434 20.671 46.6207 20.671C46.5135 20.671 46.4256 20.8085 46.4255 20.9764C46.4255 21.1457 46.3238 21.2822 46.1979 21.2823C46.072 21.2826 45.9705 21.419 45.9703 21.5882C45.9703 21.7575 45.8687 21.8939 45.7428 21.8941C45.6168 21.8944 45.5154 22.0308 45.5152 22.2C45.5152 22.3693 45.4136 22.5057 45.2876 22.5059C45.1617 22.5062 45.0602 22.6426 45.0601 22.8118C45.0601 22.9811 44.9584 23.1175 44.8325 23.1177C44.7066 23.118 44.6051 23.2544 44.6049 23.4236C44.6049 23.5929 44.5033 23.7293 44.3774 23.7295C44.2514 23.7298 44.1499 23.8662 44.1498 24.0354C44.1498 24.2047 44.0481 24.3411 43.9222 24.3413C43.7963 24.3416 43.6948 24.478 43.6947 24.6472C43.6947 24.8165 43.593 24.9529 43.4671 24.9531C43.3412 24.9534 43.2397 25.0898 43.2395 25.2594C43.2394 25.452 43.155 25.5464 43.0118 25.5144C42.8867 25.4862 42.8331 25.5126 42.8927 25.5727C43.0631 25.7444 42.7161 26.2755 42.5112 26.1569C42.411 26.099 42.378 26.1061 42.4376 26.1727C42.604 26.3585 42.2643 26.8891 42.056 26.7687C41.9559 26.7108 41.9228 26.7179 41.9825 26.7845C42.0421 26.8512 42.0227 27.0342 41.9392 27.1913C41.7245 27.5957 40.4338 27.5951 40.0706 27.1904C39.929 27.0327 39.8332 26.8122 39.8574 26.7003C39.8819 26.5884 39.7993 26.4936 39.6742 26.4896C39.549 26.4855 39.4464 26.3447 39.4464 26.1767C39.4463 26.0075 39.3448 25.8711 39.2189 25.8708C39.093 25.8706 38.9913 25.7342 38.9913 25.5649C38.9912 25.3957 38.8897 25.2593 38.7637 25.259C38.6378 25.2588 38.5362 25.1224 38.5362 24.9531C38.536 24.7839 38.4345 24.6475 38.3086 24.6472C38.1827 24.647 38.081 24.5106 38.081 24.3413C38.0809 24.1733 37.9785 24.0342 37.8535 24.0322C37.7283 24.0302 37.6355 23.9104 37.6468 23.7662C37.6582 23.6218 37.6106 23.5394 37.5406 23.583C37.3733 23.6873 37.0741 23.1172 37.2142 22.9608C37.2738 22.8942 37.2407 22.887 37.1406 22.945C36.9323 23.0654 36.5926 22.5348 36.759 22.349C36.8186 22.2824 36.7856 22.2752 36.6854 22.3332C36.4805 22.4517 36.1335 21.9207 36.3039 21.749C36.3635 21.6888 36.31 21.6625 36.1848 21.6907C36.0416 21.7226 35.9572 21.6283 35.9571 21.4357C35.9569 21.2661 35.8554 21.1297 35.7295 21.1294C35.6036 21.1292 35.5019 20.9928 35.5019 20.8235C35.5018 20.6543 35.4003 20.5179 35.2744 20.5176C35.1485 20.5174 35.0468 20.381 35.0468 20.2117C35.0467 20.0437 34.9588 19.9062 34.8516 19.9062C34.6196 19.9062 34.3518 19.515 34.4614 19.3362C34.5038 19.2671 34.4482 19.2293 34.3376 19.2524C34.2239 19.2762 34.1365 19.1615 34.1365 18.9885C34.1364 18.8203 34.0486 18.6826 33.9413 18.6826C33.697 18.6826 33.4438 18.2876 33.5632 18.0927C33.6124 18.0126 33.5772 17.9941 33.4851 18.0514C33.2895 18.1733 32.9576 17.6337 33.118 17.4546C33.1776 17.3881 33.1445 17.3809 33.0444 17.4389C32.8394 17.5574 32.4924 17.0264 32.6628 16.8546C32.7224 16.7945 32.6689 16.7682 32.5437 16.7963C32.4005 16.8283 32.3162 16.7339 32.316 16.5414C32.3159 16.3717 32.2144 16.2353 32.0884 16.235C31.9625 16.2349 31.8609 16.0984 31.8609 15.9291C31.8607 15.7599 31.7592 15.6235 31.6333 15.6232C31.5074 15.6231 31.4057 15.4866 31.4057 15.3173C31.4056 15.1494 31.3177 15.0119 31.2105 15.0119C30.9785 15.0119 30.7108 14.6206 30.8203 14.4418C30.8628 14.3727 30.8071 14.3349 30.6965 14.358C30.5829 14.3819 30.4955 14.2672 30.4955 14.0942C30.4953 13.9259 30.4075 13.7883 30.3002 13.7883C30.0683 13.7883 29.8005 13.397 29.91 13.2183C29.9525 13.1491 29.8968 13.1113 29.7862 13.1344C29.6726 13.1583 29.5852 13.0436 29.5852 12.8706C29.5851 12.701 29.4836 12.5646 29.3576 12.5642C29.2317 12.5641 29.1301 12.4277 29.1301 12.2583C29.1299 12.0892 29.0284 11.9528 28.9025 11.9525C28.7773 11.9523 28.6742 11.8367 28.6731 11.6956C28.6721 11.5546 28.61 11.3827 28.5351 11.3137C28.4563 11.2411 28.4459 11.285 28.5103 11.4176C28.5716 11.5438 28.5164 11.5164 28.3877 11.3569C28.2591 11.1972 28.1963 10.9973 28.2483 10.9126C28.3004 10.8277 28.2674 10.8053 28.1752 10.8628C27.9796 10.9847 27.6477 10.4451 27.8081 10.266C27.8677 10.1995 27.8346 10.1923 27.7345 10.2503C27.5295 10.3688 27.1826 9.83779 27.3529 9.66603C27.4125 9.60592 27.359 9.57961 27.2338 9.60775C27.0906 9.63972 27.0063 9.54535 27.0061 9.35279C27.006 9.18454 26.9181 9.04689 26.8109 9.04689C26.5666 9.04689 26.3134 8.65182 26.4328 8.45697C26.4819 8.37682 26.4467 8.35832 26.3547 8.41567C26.197 8.51387 25.9164 8.16117 25.8834 7.8233C25.8751 7.73918 25.7832 7.6702 25.6788 7.66989C25.5746 7.66974 25.489 7.53209 25.489 7.364C25.4888 7.19484 25.3873 7.05841 25.2614 7.0581C25.1355 7.05795 25.0339 6.92152 25.0339 6.7522C25.0337 6.58304 24.9322 6.44661 24.8063 6.44631C24.6804 6.44615 24.5787 6.30972 24.5787 6.14041C24.5786 5.97125 24.4771 5.83482 24.3512 5.83451C24.2252 5.83436 24.1236 5.69793 24.1236 5.52862C24.1234 5.35946 24.0219 5.22303 23.896 5.22272C23.7701 5.22257 23.6685 5.08614 23.6685 4.91682C23.6683 4.74766 23.5668 4.61123 23.4409 4.61093C23.315 4.61077 23.2133 4.47434 23.2133 4.30503C23.2132 4.13709 23.1253 3.99959 23.0181 3.99959C22.7861 3.99959 22.5183 3.60835 22.6279 3.42955C22.6704 3.36042 22.6147 3.32264 22.5041 3.34574C22.3904 3.3696 22.3031 3.25489 22.3031 3.0819C22.3029 2.91228 22.2014 2.77585 22.0755 2.77555C21.9496 2.77539 21.8479 2.63896 21.8479 2.46965C21.8478 2.30049 21.7463 2.16406 21.6204 2.16375C21.4952 2.1636 21.392 2.04797 21.391 1.90695C21.3899 1.76593 21.3279 1.59402 21.2529 1.52504C21.174 1.45239 21.1645 1.49613 21.23 1.62889C21.2924 1.75508 21.2063 1.68824 21.0387 1.48023C20.8711 1.27222 20.7679 1.04693 20.8093 0.979322C20.8506 0.911872 20.7941 0.87547 20.6835 0.898565C20.5723 0.921814 20.5053 0.83815 20.5332 0.711203C20.5611 0.58502 20.5353 0.530725 20.4761 0.590374C20.4168 0.650177 20.1597 0.59022 19.9048 0.457308C19.3972 0.192707 17.7945 0.0743253 17.9403 0.312313ZM57.083 27.2858C59.5236 27.3095 63.5174 27.3095 65.9582 27.2858C68.3987 27.2623 66.4019 27.243 61.5206 27.243C56.6393 27.243 54.6425 27.2623 57.083 27.2858ZM12.935 27.4388C14.5414 27.4636 17.1698 27.4636 18.7759 27.4388C20.3822 27.414 19.068 27.3937 15.8555 27.3937C12.643 27.3937 11.3289 27.414 12.935 27.4388ZM31.7093 33.747C30.708 33.8089 29.3768 33.8758 28.7509 33.8955C27.8813 33.923 27.7025 33.9631 27.9924 34.0656C28.2599 34.1601 28.1515 34.1742 27.6243 34.1133C26.5489 33.9893 23.3568 34.2089 23.6149 34.3892C23.7551 34.4873 23.7056 34.5001 23.4591 34.4296C22.9676 34.2893 20.2337 34.5071 20.3387 34.6783C20.3848 34.7535 20.3152 34.7736 20.1838 34.7228C19.8734 34.6027 17.6539 34.8117 17.7403 34.9528C17.7768 35.0122 17.563 35.0321 17.2653 34.997C16.9604 34.9611 16.7618 34.9944 16.8102 35.0735C16.8587 35.1524 16.6602 35.1858 16.3551 35.15C15.9436 35.1015 15.8427 35.1332 15.9341 35.282C16.012 35.4091 15.9935 35.44 15.8816 35.3702C15.666 35.2359 14.619 35.4225 14.7143 35.5781C14.7528 35.6408 14.6055 35.6578 14.3871 35.6157C14.1322 35.5665 14.0252 35.5967 14.0885 35.7C14.151 35.802 14.0673 35.8292 13.8597 35.7745C13.6159 35.7102 13.5637 35.7394 13.6554 35.8889C13.7408 36.0282 13.7195 36.053 13.586 35.9696C13.3718 35.8363 11.578 36.635 11.6881 36.8148C11.7254 36.8757 11.6373 36.9159 11.4921 36.9045C11.3304 36.8916 11.2479 36.9722 11.2788 37.1129C11.3067 37.2391 11.2806 37.2931 11.221 37.233C11.057 37.0678 10.5218 37.409 10.6407 37.6031C10.699 37.6983 10.6754 37.7291 10.5865 37.6738C10.3863 37.549 9.13481 38.9035 9.26073 39.1089C9.31232 39.193 9.26407 39.2429 9.15347 39.2198C9.04242 39.1965 8.96186 39.2966 8.97339 39.4437C8.98522 39.595 8.925 39.6667 8.83382 39.6098C8.73293 39.5469 8.71048 39.6072 8.77344 39.7724C8.82836 39.9168 8.81106 39.996 8.7349 39.9486C8.55315 39.8354 7.92643 41.5307 8.01867 41.886C8.06176 42.0524 8.02702 42.1215 7.93038 42.0613C7.82797 41.9975 7.79793 42.1053 7.84678 42.3623C7.89366 42.61 7.86408 42.7263 7.76911 42.6671C7.67034 42.6054 7.65107 42.7567 7.7151 43.0924C7.77457 43.4051 7.76182 43.5311 7.68309 43.4078C7.49997 43.1212 7.00236 46.4758 7.11007 47.2716C7.16135 47.6508 7.14709 47.7772 7.07351 47.5939C6.98992 47.3851 6.91922 47.6625 6.84458 48.492C6.26322 54.9605 6.32649 65.1118 6.98977 71.7557C7.29092 74.7731 7.36495 75.2118 7.55368 75.0941C7.64698 75.036 7.66367 75.0724 7.59509 75.1842C7.42275 75.4653 7.64819 76.7538 7.848 76.6294C7.94813 76.567 7.96982 76.5975 7.90276 76.7067C7.7421 76.969 7.95768 77.8207 8.154 77.6984C8.25094 77.638 8.27264 77.669 8.2077 77.7749C8.06525 78.0072 8.25049 78.5921 8.43087 78.4798C8.50749 78.4319 8.52509 78.5108 8.47001 78.6555C8.40265 78.8325 8.42738 78.8824 8.54587 78.8085C8.6642 78.7348 8.68893 78.7846 8.62173 78.9614C8.54845 79.1535 8.5756 79.1904 8.72276 79.0988C8.8546 79.0165 8.88737 79.0327 8.81804 79.1457C8.67892 79.3727 9.16743 80.1174 9.37194 79.99C9.46039 79.9348 9.48572 79.9643 9.42913 80.0567C9.30169 80.2644 10.653 81.6665 10.8576 81.5391C10.9405 81.4874 10.9895 81.5363 10.9666 81.6478C10.9437 81.7592 11.0417 81.8411 11.1844 81.8301C11.3272 81.819 11.4296 81.8878 11.412 81.9831C11.3944 82.0782 11.4988 82.1467 11.6438 82.1353C11.789 82.1238 11.8773 82.164 11.84 82.2247C11.7405 82.3872 12.8135 82.8674 13.0068 82.7469C13.1122 82.6813 13.1272 82.7166 13.0485 82.8449C12.9569 82.9944 13.0091 83.0236 13.2529 82.9594C13.4627 82.904 13.5443 82.9315 13.4804 83.0358C13.4166 83.1401 13.4982 83.1675 13.708 83.1123C13.9178 83.0569 13.9994 83.0845 13.9356 83.1888C13.8717 83.2931 13.9533 83.3205 14.1631 83.2653C14.3707 83.2105 14.4544 83.2377 14.3919 83.3397C14.3287 83.443 14.4356 83.4733 14.6905 83.424C14.909 83.382 15.0543 83.402 15.0135 83.4685C14.9127 83.6329 16.2417 83.8232 16.4751 83.6778C16.5867 83.6082 16.6221 83.6254 16.5634 83.7212C16.4411 83.9205 17.9424 84.1259 18.6275 84.0034C18.963 83.9434 19.0235 83.9561 18.8198 84.0436C18.4631 84.1966 20.6242 84.4258 25.4891 84.7513C36.1082 85.4617 46.8107 85.4315 57.8706 84.6595C59.3258 84.558 60.4049 84.435 60.2687 84.3862C60.1323 84.3374 60.6824 84.2899 61.4913 84.2807C63.2548 84.2603 66.4998 83.7837 66.1998 83.589C66.0776 83.5097 66.2026 83.4968 66.5127 83.5568C66.8457 83.6213 66.9957 83.6019 66.9346 83.5023C66.8759 83.4066 66.9912 83.3768 67.2369 83.424C67.5085 83.4765 67.6006 83.4457 67.5279 83.3272C67.4601 83.2168 67.5047 83.186 67.6508 83.2426C67.9782 83.3693 68.9793 83.0088 68.8566 82.8085C68.795 82.7082 68.8276 82.6889 68.9402 82.7591C69.1848 82.9115 70.0398 82.5476 69.9152 82.3442C69.8588 82.2523 69.8914 82.2313 69.9928 82.2943C70.1991 82.423 70.8229 82.0261 70.6648 81.8667C70.6054 81.8067 70.6632 81.7989 70.7932 81.8493C70.9262 81.9006 71.1235 81.8245 71.2438 81.675C71.4264 81.4481 71.4266 81.4282 71.2445 81.5388C71.0989 81.6272 71.0663 81.6116 71.1414 81.4891C71.2018 81.3906 71.3104 81.347 71.3827 81.3921C71.5677 81.5073 72.7973 80.2968 72.6837 80.1115C72.6325 80.0279 72.6705 79.9099 72.7682 79.849C72.8864 79.7753 72.9082 79.8101 72.8334 79.953C72.7715 80.0712 72.8622 79.9958 73.0347 79.7855C73.2074 79.5752 73.3166 79.3135 73.2773 79.204C73.238 79.0945 73.2662 79.0425 73.34 79.0884C73.5123 79.1959 73.6898 78.7384 73.5587 78.5245C73.5023 78.4324 73.5302 78.4062 73.6231 78.4641C73.822 78.5879 74.0248 78.0251 73.8714 77.7749C73.8075 77.6707 73.8282 77.638 73.9213 77.6961C74.1236 77.8221 74.3064 77.1137 74.1847 76.6753C74.1093 76.404 74.1239 76.3856 74.2651 76.5736C74.4029 76.7568 74.4256 76.7047 74.3784 76.314C74.3458 76.045 74.3671 75.8548 74.4253 75.8912C74.5914 75.9947 74.9196 73.5697 74.8143 73.0163C74.7425 72.6392 74.7589 72.5754 74.8832 72.7499C75.0039 72.9195 75.0281 72.7202 74.9754 71.9852C74.9361 71.4384 74.9542 71.1268 75.0153 71.2929C75.2315 71.8798 75.6182 64.1938 75.6191 59.2904C75.6202 53.907 75.1321 45.8506 74.846 46.5275C74.7621 46.726 74.7498 46.6577 74.8092 46.3219C74.9346 45.6117 74.7295 44.1983 74.5409 44.4729C74.4388 44.6216 74.4252 44.5805 74.4942 44.3333C74.6119 43.9125 74.4378 42.7405 74.2729 42.8431C74.2088 42.8831 74.1906 42.7355 74.2323 42.5152C74.2789 42.2702 74.2495 42.1515 74.1565 42.2093C74.0636 42.2671 74.0342 42.1484 74.0806 41.9034C74.1295 41.6465 74.0994 41.5386 73.997 41.6024C73.8958 41.6654 73.8688 41.581 73.9231 41.3718C73.9779 41.1602 73.9508 41.078 73.8473 41.1423C73.7438 41.2067 73.7165 41.1245 73.7714 40.9129C73.8185 40.7314 73.7951 40.6214 73.7194 40.6687C73.6436 40.7158 73.5712 40.5787 73.5584 40.3641C73.5307 39.8983 72.393 38.242 72.1419 38.3021C72.0453 38.3252 72.0072 38.277 72.0574 38.195C72.1563 38.0338 71.2794 37.3177 71.0602 37.3806C70.9868 37.4017 70.9437 37.3329 70.9646 37.2276C70.9854 37.1226 70.8786 37.0467 70.7269 37.0594C70.5753 37.0719 70.4896 37.0438 70.5364 36.9967C70.6785 36.8534 70.0286 36.4756 69.8411 36.5924C69.7247 36.6648 69.7077 36.6334 69.7904 36.4988C69.8813 36.3505 69.8447 36.3231 69.6542 36.397C69.5109 36.4523 69.4307 36.4377 69.4756 36.3644C69.5875 36.1816 67.8049 35.5259 67.5083 35.6406C67.3544 35.7001 67.3075 35.6715 67.3762 35.5596C67.4489 35.441 67.3568 35.4103 67.0852 35.4628C66.8668 35.5048 66.7214 35.4848 66.7622 35.4183C66.863 35.2538 65.534 35.0636 65.3006 35.209C65.174 35.2879 65.1538 35.2612 65.2374 35.1249C65.3339 34.9675 65.2198 34.944 64.6997 35.0143C64.3367 35.0634 64.1264 35.0495 64.2326 34.9834C64.5592 34.7798 57.9161 34.1206 56.9098 34.2568C56.5757 34.3019 56.3864 34.2866 56.4889 34.2225C57.137 33.8187 36.8466 33.4293 31.7093 33.747ZM-0.000488281 59.7493C-0.000488281 71.7366 0.0175665 76.6406 0.0395647 70.6469C0.0615628 64.6531 0.0615628 54.8453 0.0395647 48.8517C0.0175665 42.8581 -0.000488281 47.762 -0.000488281 59.7493ZM6.65206 54.8549C6.65206 55.4858 6.67891 55.744 6.71153 55.4285C6.7443 55.1131 6.7443 54.5969 6.71153 54.2814C6.67891 53.966 6.65206 54.224 6.65206 54.8549ZM75.3928 59.061C75.3926 61.3323 75.4137 62.2827 75.4397 61.1732C75.4656 60.0636 75.4656 58.2053 75.4398 57.0436C75.414 55.8818 75.3928 56.7897 75.3928 59.061ZM6.64963 63.573C6.64963 64.1198 6.67724 64.3435 6.71077 64.0701C6.74445 63.7966 6.74445 63.3494 6.71077 63.0759C6.67724 62.8024 6.64963 63.0262 6.64963 63.573ZM31.4438 84.9434C31.7151 84.9774 32.1587 84.9774 32.4299 84.9434C32.7012 84.9096 32.4792 84.8818 31.9369 84.8818C31.3945 84.8818 31.1726 84.9096 31.4438 84.9434ZM38.4321 85.1003C39.7933 85.1256 41.9779 85.1256 43.2869 85.1002C44.5958 85.0746 43.4821 85.054 40.812 85.054C38.1419 85.0541 37.0709 85.0749 38.4321 85.1003ZM22.0377 91.9832C25.6466 92.006 31.552 92.006 35.1607 91.9832C38.7697 91.9602 35.8169 91.9416 28.5992 91.9416C21.3816 91.9416 18.429 91.9602 22.0377 91.9832Z" />
</g>
<defs>
<clipPath id="clip0_41_265">
<rect width="82" height="92" />
</clipPath>
</defs>
</svg>
