<svg width="76" height="76" viewBox="0 0 76 76" fill="none" xmlns="http://www.w3.org/2000/svg">
<g id="share-svgrepo-com 1">
<g id="Group">
<g id="Group_2">
<path id="Vector" d="M56.2741 52.1216C53.9185 52.1216 51.7243 52.8065 49.8741 53.984L31.2012 40.9474C31.501 39.9009 31.6649 38.7971 31.6649 37.6545C31.6649 36.5117 31.501 35.4079 31.2012 34.3616L49.37 21.6768C51.3194 23.0615 53.7006 23.8784 56.2739 23.8784C62.8677 23.8784 68.2131 18.533 68.2131 11.9393C68.2131 5.34557 62.8678 0 56.2741 0C49.6804 0 44.335 5.34541 44.335 11.9391C44.335 12.81 44.4308 13.6581 44.6077 14.4759L25.9776 27.4829C24.1591 26.3628 22.0184 25.7154 19.7258 25.7154C13.132 25.7154 7.78662 31.0608 7.78662 37.6545C7.78662 44.2482 13.1319 49.5936 19.7258 49.5936C22.0182 49.5936 24.1591 48.9462 25.9776 47.8261L44.7516 60.9335C44.4816 61.9306 44.335 62.9784 44.335 64.0609C44.335 70.6546 49.6804 76 56.2741 76C62.8678 76 68.2132 70.6546 68.2132 64.0609C68.2132 57.4671 62.8678 52.1216 56.2741 52.1216Z" fill="black"/>
</g>
</g>
</g>
</svg>
