<svg width="41" height="40" viewBox="0 0 41 40" stroke="currentColor" xmlns="http://www.w3.org/2000/svg">
<path d="M4.50017 28.3333C3.33588 22.8388 3.33588 17.1612 4.50017 11.6667C4.65316 11.1087 4.94874 10.6001 5.35785 10.191C5.76697 9.7819 6.27552 9.48631 6.83351 9.33333C15.7726 7.85243 24.8944 7.85243 33.8335 9.33333C34.3915 9.48631 34.9001 9.7819 35.3092 10.191C35.7183 10.6001 36.0139 11.1087 36.1668 11.6667C37.3311 17.1612 37.3311 22.8388 36.1668 28.3333C36.0139 28.8913 35.7183 29.3999 35.3092 29.809C34.9001 30.2181 34.3915 30.5137 33.8335 30.6667C24.8945 32.1479 15.7726 32.1479 6.83351 30.6667C6.27552 30.5137 5.76697 30.2181 5.35785 29.809C4.94874 29.3999 4.65316 28.8913 4.50017 28.3333Z" stroke="white" stroke-width="3.33333" stroke-linecap="round" stroke-linejoin="round"/>
<path d="M17 25L25.3333 20L17 15V25Z"  stroke-width="3.33333" stroke-linecap="round" stroke-linejoin="round"/>
</svg>
