<svg xmlns="http://www.w3.org/2000/svg" version="1.1" xmlns:xlink="http://www.w3.org/1999/xlink" width="1000" height="1000"><style>
    #light-icon {
      display: inline;
    }
    #dark-icon {
      display: none;
    }

    @media (prefers-color-scheme: dark) {
      #light-icon {
        display: none;
      }
      #dark-icon {
        display: inline;
      }
    }
  </style><g id="light-icon"><svg xmlns="http://www.w3.org/2000/svg" version="1.1" xmlns:xlink="http://www.w3.org/1999/xlink" width="1000" height="1000"><g><g transform="matrix(10.869565217391305,0,0,10.869565217391305,54.3478260869565,0)"><svg xmlns="http://www.w3.org/2000/svg" version="1.1" xmlns:xlink="http://www.w3.org/1999/xlink" width="82" height="92"><svg fill="none" height="92" viewBox="0 0 82 92" width="82" xmlns="http://www.w3.org/2000/svg" xmlns:xlink="http://www.w3.org/1999/xlink"><clipPath id="a"><path d="m0 0h82v92h-82z"></path></clipPath><g clip-path="url(#a)" clip-rule="evenodd" fill="#1d1c1c" fill-rule="evenodd"><path d="m17.8919.229125c-.9909.465269-1.3777 1.595405-.9125 2.666505.1174.27071 4.2079 5.86067 9.0896 12.42217 4.8819 6.5615 8.8648 11.9394 8.8512 11.9509-.0138.0115-5.7939.0688-12.8447.1274-13.99065.1163-14.02675.1186-16.19516 1.026-2.08073.8706-3.53093 2.2906-4.67165 4.5744-1.1376865 2.2774-1.055459.1873-1.055459 26.8293 0 26.715-.0858683 24.6134 1.099299 26.8999 1.18456 2.2855 3.34903 3.9505 6.13278 4.718l1.26376.3483h32.23863 32.2387l1.3654-.3501c4.4049-1.1294 6.8977-3.9942 7.3512-8.4486.2048-2.0126.2103-43.9633.0059-46.0813-.1682-1.7438-.3969-2.6026-1.028-3.8614-1.6128-3.2169-4.1599-5.0601-7.6945-5.5678-.6352-.0913-6.0522-.1537-13.4806-.1555-10.6746-.0026-12.407-.0337-12.3358-.2206.0455-.1197 3.9932-5.4709 8.7727-11.8917 4.7795-6.42092 8.8161-11.91513 8.9701-12.20956.37-.70662.2737-1.71256-.215-2.246961-.8987-.983-2.144-1.011908-3.1471-.072957-.3297.308497-2.8024 3.520568-5.495 7.137798-2.6926 3.61718-7.0735 9.48828-9.7352 13.04668l-4.8395 6.47-.6594-.0462-.6593-.046-7.0288-9.4828c-11.6743-15.75051-12.6216-17.004533-13.0944-17.333831-.6792-.4732221-1.5465-.549696-2.2872-.202044zm.3066.032117c-1.0258.304062-1.5709 1.591738-1.0874 2.568918.2142.433 5.3305 7.37654 14.2604 19.35394 2.0672 2.7725 3.7057 5.0923 3.6411 5.1548-.0647.0626-5.8522.1599-12.8612.2161-14.32446.1152-14.42565.1227-16.72074 1.2304-1.63848.7909-3.1119 2.2986-3.96922 4.062-1.252379 2.5755-1.156498.3383-1.156498 26.9784 0 25.7767-.046575 24.3417.855958 26.3695 1.08307 2.4331 3.06715 4.0992 5.97105 5.0137l1.36541.4301h32.08694c25.3828 0 32.3003-.0409 33.1081-.1952 4.2467-.8116 6.9184-3.2202 7.8071-7.0381.2585-1.1102.2745-2.5368.2745-24.5035 0-26.222.0728-24.5025-1.1373-26.8601-1.231-2.3981-2.8922-3.9422-5.1975-4.8312-1.8-.6942-2.6274-.7326-15.7819-.7332-10.366-.0005-12.4203-.035-12.487-.2102-.046-.1211 3.6157-5.1759 8.67-11.9682 4.8122-6.46723 8.8874-12.0422 9.0561-12.38863.7528-1.54784-.5565-3.106996-2.2202-2.643868-.3016.083969-.713.304367-.9143.48974-.2014.185221-3.1113 4.019178-6.4666 8.519688-3.3554 4.50047-7.7819 10.43657-9.8368 13.19137l-3.7364 5.0086-.7165.0004-.7165.0005-5.8056-7.8386c-11.2682-15.21426-14.0163-18.842803-14.4653-19.100216-.5987-.343216-1.2579-.4437024-1.8197-.277142zm12.9797 33.496958c-3.6568.2087-3.8477.2672-.531.1622 5.2219-.165 19.5225-.0966 22.4533.1074 11.6473.8113 14.9469 1.3761 17.4008 2.9791 2.5602 1.6725 3.6158 3.9784 4.2842 9.3594 1.1227 9.0367.7672 24.8086-.6894 30.588-.4301 1.7069-1.0662 2.823-2.2473 3.9433-2.3381 2.2178-5.27 2.9625-14.2728 3.6257-13.5701.9995-32.5732.6052-41.1135-.853-4.4341-.7571-7.10782-2.6515-8.2141-5.8199-1.64971-4.7242-2.20391-21.4002-1.03315-31.0879.64386-5.3277 1.51134-7.5988 3.51725-9.2092 2.3649-1.8986 5.3529-2.5497 15.2875-3.3314 1.0426-.0821 1.3047-.1321.7586-.1448-.82-.019-4.673.2927-7.358.5954-4.9825.5618-7.47 1.451-9.3444 3.3407-.55297.5575-1.19365 1.3885-1.4241 1.8467-.80316 1.5978-1.40803 4.6623-1.90322 9.6419-.26458 2.6614-.36243 12.6812-.16202 16.5949.30676 5.989.82273 10.0106 1.52227 11.8669.96185 2.5517 3.06107 4.4241 5.96557 5.3203 4.6598 1.4381 21.6644 2.347 34.702 1.855 10.459-.3948 16.7575-1.0393 19.6424-2.0099 3.2477-1.0928 5.2595-3.3754 5.9947-6.8019 1.5109-7.0418 1.5894-25.0106.1417-32.4844-.6451-3.3305-1.4123-4.9081-3.0588-6.2896-2.5471-2.137-5.1835-2.698-16.8791-3.5921-3.7142-.2839-19.6096-.4214-23.4394-.2028z"></path><path d="m17.9403.312313c.0508.082745-.0229.101711-.1714.044202-.144-.055673-.2218-.037778-.1742.03992.0894.145913-.1843.383595-.4497.39063-.0834.002142-.1315.175279-.1069.384665.0262.22331-.0052.30773-.0759.20403-.0664-.09727-.1206.18782-.1206.6355 0 .47445.0528.73859.127.6355.0767-.10706.0978-.04297.0534.16228-.0445.20511-.0047.32578.1007.3059.0958-.0182.1742.10462.1742.27286.0001.16962.1016.30605.2276.30636.1259.00015.2275.13658.2275.30589.0002.16794.1026.30712.2276.30911.1251.00199.218.12175.2066.26598-.0114.14438.0363.22682.1062.18323.1231-.07663.4133.3345.418.59221.0012.07021.0531.17345.1151.22943.0621.05613.0546-.00123-.0165-.12741-.1114-.19776-.0939-.20051.1274-.01958.2959.24197.3506.55337.0671.38161-.1288-.078-.1229-.03196.0185.14393.2441.30329.3823.34153.2447.0676-.0528-.10508.0093-.06057.1379.09896.1287.15968.1915.35958.1394.44431-.052.08489-.0191.10722.0732.04971.1561-.09728.4847.31339.4332.54144-.0125.05598.0393.15922.1152.22942.0812.07495.0922.03288.0267-.10202-.0613-.12618-.0061-.0988.1226.06072.1286.15968.1969.35056.1517.42444-.0454.07387.008.11532.1186.09222.1137-.02386.201.09085.201.26384.0002.16962.1017.30605.2276.30636.1259.00015.2276.13658.2276.30589.0001.16916.1016.30559.2275.3059.126.00015.2276.13658.2276.3059.0002.16916.1017.30559.2276.30589.1259.00016.2275.13658.2275.3059.0002.16916.1017.30556.2276.30586.1259.0002.2276.1366.2276.3059.0001.1692.1016.3056.2276.3059.1259.0002.2275.1366.2275.3059.0002.1692.1017.3056.2276.3059.1259.0002.2276.1366.2276.3059.0001.1692.1016.3056.2275.3059.1259.0002.2276.1366.2276.3059.0001.1692.1016.3056.2276.3059.1259.0002.2275.1366.2275.3059.0002.1692.1017.3056.2276.3059.1259.0002.2276.1366.2276.3059.0001.1692.1016.3056.2275.3059.1259.0001.2276.1366.2276.3059.0001.1692.1016.3056.2276.3059.1259.0001.2275.1366.2275.3059.0002.1691.1017.3056.2276.3059.1259.0001.2276.1366.2276.3059.0001.1691.1016.3056.2275.3059.1259.0001.2276.1366.2276.3059.0001.1691.1016.3056.2276.3059.1259.0001.2275.1366.2275.3059.0002.1691.1017.3056.2276.3059.1252.0001.2283.1157.2294.2568.001.141.0631.3129.138.3819.0788.0726.0892.0287.0248-.1039-.0613-.1262-.0061-.0988.1225.0607.1287.1597.2009.3442.1606.4101-.0405.0659.0063.1696.104.2305.1216.0757.137.0428.0493-.104-.1096-.1835-.0899-.1834.1352.0008.1449.1186.2292.3057.1874.4157-.0419.1099-.0003.2473.0924.3049.1081.0675.1289.028.0579-.1096-.0607-.1182-.0051-.0843.1235.0752.1287.1597.2009.3442.1605.4101-.0405.0659.0064.1696.1041.2305.1215.0757.137.0428.0493-.104-.1097-.1836-.0907-.184.1302-.0034.1423.1164.2407.3214.2187.4555s.0625.2455.1877.2476c.1252.0022.2277.1413.2277.3094.0002.1692.1017.3056.2276.3059.1259.0002.2276.1366.2276.3059.0001.1692.1016.3056.2275.3059.126.0002.2276.1366.2276.3059.0002.1692.1016.3056.2276.3059.1259.0002.2275.1366.2275.3059.0002.1692.1017.3056.2276.3059.1259.0002.2276.1366.2276.3059.0001.1692.1016.3056.2275.3059.126.0002.2276.1366.2276.3059.0002.1692.1016.3056.2276.3059.1259.0001.2275.1366.2275.3059.0002.1679.088.3054.1953.3054.232 0 .4997.3913.3902.5701-.0425.0691.0132.1069.1238.0838.1136-.0239.201.0908.201.2638.0002.1696.1016.3061.2276.3064.1259.0001.2275.1366.2275.3059.0002.1691.1017.3056.2276.3059.1252.0001.2306.1378.2346.3059.0037.1679.087.2889.185.2687.2073-.0427.5465.5191.3772.6245-.0628.039-5.8148.1171-12.7821.1736-7.0146.0569-13.06042.1695-13.54742.2522-.48365.0823-1.02981.1071-1.21369.0551-.27429-.0776-.29341-.0631-.10665.0813.17978.1389.11606.1571-.30342.0867-.40507-.068-.47698-.0498-.30343.0768.18373.1342.16188.1516-.11393.0906-.18797-.0415-.30646-.0181-.26337.0521.10589.1727-.48533.3504-.70683.2125-.11788-.0734-.13517-.0427-.05218.0925.09087.1484.05431.1757-.13624.1019-.17538-.0678-.22484-.0429-.15171.0764.07327.1195.02381.1444-.15171.0765-.17538-.0677-.22484-.0428-.15172.0765.07237.1181.02504.1448-.142.0803-.15459-.0598-.23682-.0259-.21452.0887.01988.1022-.08071.1765-.22347.1655-.14276-.0112-.24516.0577-.22757.1529.0176.0952-.0848.1739-.22772.175-.14276.0009-.34407.0869-.44754.1912-.10332.1042-.1282.1893-.05523.1893.07298 0-.02564.17-.21922.3777s-.40112.347-.46135.3095c-.06008-.0374-.23789.0797-.39506.2604s-.20041.2783-.09618.2168c.28294-.1668.22908.1424-.06706.3847-.21862.1787-.23758.178-.1282-.005.08526-.1427.07176-.1796-.0402-.1097-.0927.0577-.13275.199-.0889.314.04369.115-.00395.2611-.1059.3246-.12653.0787-.1464.0518-.06281-.0846.0795-.1297.06342-.1632-.04581-.0952-.0927.0577-.12577.2172-.07343.3546.06296.1658.03595.2127-.08086.1401-.11834-.0737-.14307-.0239-.07586.1529.06736.177.04263.2268-.07586.153-.11833-.0737-.14306-.0239-.07585.1529.06736.177.04263.2268-.07586.153-.11833-.0737-.14306-.0239-.07585.1529.06736.177.04263.2268-.07586.153-.11833-.0738-.14306-.0239-.07585.1529.07327.1921.04612.229-.101044.1374-.132292-.0826-.164607-.0661-.094516.0481.1643.268-.229994 1.4598-.402794 1.2177-.099067-.1388-.113935-.1143-.050368.0832.04961.154.043237.6702-.013806 1.1471-.07176.5988-.130472.7578-.189639.514-.047031-.1942-.085565 10.2887-.085565 23.2955 0 13.0067.049611 23.4896.110295 23.2954.065995-.2114.08966-.0256.059015.4628-.028219.4488-.001517.7345.059623.6349.065539-.1069.153077.0454.213914.372.056588.3042.054918.6313-.003795.7271-.06296.1026-.039445.132.057499.0716.198893-.1239.401731.4389.248353.6891-.072822.1189-.042329.1363.091784.0526.147164-.0916.174314-.0547.101044.1374-.06721.1768-.04248.2267.07585.1529.11849-.0738.14322-.024.07586.153-.06721.1768-.04248.2267.07585.1529.11849-.0738.14322-.024.07586.153-.06266.1649-.04036.2254.06023.1627.09497-.0592.14064.0141.11211.1797-.02867.1671.04354.2812.17948.2835.12516.0021.22772.1413.22772.3094.00015.1679.08207.3054.18205.3054.25139 0 .5137.2885.56149.6173.02214.1513.15732.2923.30053.3136.31162.046.7399.3805.6296.4915-.12076.1218.23971.4968.38839.4043.19024-.1187.76918.227.66495.397-.04976.0811.02533.0997.17234.0428.17553-.0679.22499-.0429.15171.0765-.07312.1193-.02366.1443.15172.0765.17552-.0679.22498-.043.15171.0765-.07313.1193-.02367.1442.15171.0764.19055-.0738.22711-.0465.13624.1019-.07965.1299-.06539.1658.03974.1003.09027-.0562.7308.0628 1.42351.2643.79163.2305 1.148.3937.95927.4396-.16506.0401.10954.047.61019.0153.50064-.0316.79299-.0047.64962.0597-.14321.0645 2.45109.1001 5.76499.0793 3.3142-.0209 17.7682-.0706 32.1201-.1105 14.3519-.04 26.3808-.09 26.7308-.1112.4017-.0244.5695-.0871.4551-.17-.1067-.0774.0373-.0948.3497-.0423.3363.0566.4541.0393.3212-.047-.1555-.1008-.0876-.1632.2617-.2404.2594-.0575.5522-.0543.6505.0069.1203.0751.1382.0452.0546-.091-.0909-.1484-.0543-.1758.1363-.1019.1741.0673.2246.0427.1529-.0746-.0739-.1203-.0002-.147.2347-.0851.1881.0496.3016.0494.2521-.0004-.1453-.1467.499-.5286.6905-.4092.1163.0724.1333.041.0506-.0936-.0899-.1468-.055-.1759.1266-.1057.1545.0598.2368.0259.2145-.0887-.0199-.1021.1004-.1889.2673-.1928s.287-.0878.267-.1866c-.02-.0987.0994-.2529.2655-.3423.166-.0897.3019-.1141.3019-.0545 0 .0597.1686-.0511.3746-.2462.206-.1952.3366-.4167.2904-.4922-.1049-.171.2366-.6063.397-.5064.0646.0402.108-.0465.0966-.1929-.0114-.1462.0566-.2515.151-.2337.0945.0177.1628-.0855.1517-.2294-.0109-.144.0628-.2454.1641-.2253.1137.0225.1474-.0604.088-.2163-.064-.1684-.0374-.2161.0797-.1432.1183.0738.143.0239.0758-.1529-.0673-.177-.0426-.2268.0759-.153.1183.0738.1431.0239.0759-.1529-.0639-.1676-.041-.2258.0634-.1608.1057.066.133-.0146.0777-.2282-.0548-.2115-.0277-.2938.0758-.2294.1029.0641.1343-.0244.0866-.2438-.0623-.2869-.045-.306.1044-.1148.1526.1954.1658.1879.0891-.0504-.1298-.4033.072-1.5564.2278-1.3022.068.1109.1203-10.7409.1162-24.1152-.0041-13.3742-.0582-24.1817-.1204-24.0165-.0892.2367-.1343.1667-.2133-.3321-.0553-.3478-.0598-.7582-.0103-.9122.0669-.2075.0524-.2267-.0559-.074-.1118.1575-.1696.1112-.2465-.1982-.0554-.2223-.0539-.4803.0033-.5734.0677-.1105.0337-.1259-.0969-.0444-.1472.0916-.1743.0548-.101-.1373.0672-.1768.0424-.2267-.0759-.153-.1185.0739-.1432.024-.0759-.1529.0672-.1768.0425-.2267-.0758-.153-.1185.0739-.1432.024-.0759-.1529.0672-.1768.0425-.2267-.0758-.153-.1171.073-.1437.0253-.0797-.1431.0593-.1559.0257-.2388-.088-.2163-.1013.02-.1747-.0834-.1634-.2296.0114-.1464-.0397-.2283-.1137-.1821-.1222.076-.1983-.1394-.1525-.4314.0098-.063-.0675-.0974-.1717-.0764-.1044.0211-.1898-.0994-.1898-.2677-.0002-.1682-.0714-.3059-.1581-.3059-.2041 0-1.3694-1.1459-1.3258-1.3036.0182-.066-.0803-.2127-.2188-.3259-.2121-.1734-.232-.1727-.1258.0052.0873.1459.0612.1892-.0846.1401-.1159-.0388-.2108-.1453-.2108-.2365 0-.0911-.0621-.223-.138-.2932-.0816-.0752-.0885-.0409-.0168.0837.0834.1452.0555.1869-.0896.1338-.1159-.0425-.1919-.1598-.169-.2606.023-.1009-.0221-.1438-.1001-.0951-.1918.1194-.6422-.0656-.5451-.2241.0426-.0694-.0024-.176-.1001-.2369-.1191-.0742-.1367-.0439-.0534.0918.0913.1491.054.1755-.1408.1001-.1457-.0564-.2974-.1024-.3373-.1024-.0397 0-.0236-.0796.0358-.1767.0665-.1081.0418-.135-.0637-.0693-.2658.1657-1.4479-.2318-1.2078-.4061.1354-.0981.1062-.1122-.0951-.0458-.1596.0526-.7057.0454-1.2137-.0159-.7374-.0892-.8333-.1287-.476-.196.2462-.0465-5.4202-.0844-12.5921-.0844-12.9382 0-13.0394-.0024-13.0394-.3059 0-.1698.1012-.3059.2274-.3059.1261 0 .2274-.1361.2276-.3054 0-.1693.1016-.3058.2275-.3059.1259-.0003.2274-.1368.2276-.3059 0-.1693.1016-.3058.2276-.3059.1259-.0003.2274-.1368.2275-.3064 0-.1682.0856-.2886.1898-.2676.1044.0211.1789-.0133.1655-.0765-.0511-.244.2156-.6433.3669-.5491.0877.0546.1191.0338.0699-.0463-.1194-.1949.1338-.59.3781-.59.1072 0 .1951-.1375.1952-.3054 0-.1693.1017-.3057.2276-.3059.1259-.0003.2274-.1367.2276-.3059 0-.1693.1016-.3057.2275-.3059.126-.0003.2274-.1367.2276-.3059 0-.1693.1016-.3057.2276-.3059.1259-.0003.2274-.1367.2275-.3059 0-.1681.1026-.3073.2277-.3094.1252-.0021.2097-.1135.1877-.2476-.022-.1342.0765-.3391.2188-.4555.2209-.1806.2398-.1802.1302.0034-.0877.1468-.0723.1797.0493.104.0977-.0609.1445-.1646.104-.2305-.0403-.0659.0319-.2504.1605-.4101.1287-.1595.1842-.1935.1235-.0752-.0734.1424-.0508.1774.0671.104.0977-.0609.1446-.1646.1041-.2305-.0404-.0659.0318-.2504.1605-.4101.1286-.1595.1839-.1869.1226-.0607-.0645.1326-.054.1765.0247.1039.0749-.069.137-.2409.138-.382.0011-.141.1044-.2581.2296-.2603.1251-.0021.21-.1116.1886-.2433-.0214-.1319.1139-.3712.3008-.532.3367-.2895.3377-.2893.1148.0136-.2064.2809-.2039.2893.0316.1036.1409-.1114.2232-.2895.1827-.3961-.0405-.1067.0488-.2908.1986-.4095.2542-.2013.2573-.1953.0449.0903-.2092.2811-.2068.2895.0289.1035.141-.1113.2217-.2937.1792-.4052-.0423-.1115.0064-.2548.1083-.3182.1266-.0788.1464-.0519.0628.0845-.0795.1297-.0634.1632.0459.0952.0927-.0577.1342-.195.0924-.305-.0419-.11.0424-.297.1873-.4157.2252-.1842.2449-.1843.1352-.0008-.0877.1468-.0722.1797.0493.104.0977-.0609.1428-.1675.1001-.2371-.0426-.0695.0416-.2572.1871-.4172.1456-.16.1965-.1843.113-.0541-.1308.2038-.1162.2086.1048.0342.141-.1113.2252-.2845.1869-.385-.0382-.1003.1442-.4222.4051-.7153.2611-.293.3851-.3951.2755-.2268-.1719.264-.1691.2788.0194.1089.1202-.1085.2193-.3149.2202-.4589.001-.144.0846-.2454.186-.2254.1013.02.15-.0531.1085-.1626-.0418-.1095.079-.3323.2682-.4952.3419-.2943.3427-.2943.1192.0096-.2065.2808-.2039.2892.0316.1035.1409-.1113.2262-.2834.1893-.3823-.0367-.099.1088-.3865.3235-.6389.2148-.2524.3404-.3556.2793-.2294-.0642.1326-.0537.1765.025.1038.0749-.0689.137-.2409.1381-.3819.001-.141.1043-.2582.2295-.2603s.21-.1116.1886-.2433c-.0214-.1319.1139-.3712.3008-.532.3367-.2895.3377-.2894.1149.0136-.2065.2808-.2039.2892.0315.1036.141-.1114.2287-.2834.1945-.3824-.034-.099.1141-.3865.3291-.63887.2151-.25236.3384-.3556.2741-.22942-.0678.13322-.0596.17681.0194.10385.075-.06898.137-.24089.1381-.38191s.1044-.25818.2295-.26032c.1252-.00214.2097-.11349.1877-.24762-.022-.13414.0765-.33909.2188-.45548.2237-.18293.2406-.18048.1245.01789-.1156.19792-.0987.20052.1226.01958.2779-.22728.352-.40287.105-.249-.2563.15968-.1678-.1788.105-.40195.2213-.18094.2388-.17818.1274.01958-.0758.13459-.0731.17757.0068.10385.075-.06898.137-.24089.1381-.38191s.1042-.25665.2294-.2568c.1259-.00031.2274-.13674.2276-.3059 0-.16931.1016-.30574.2275-.30589.1259-.00031.2274-.13674.2276-.3059 0-.16932.1016-.30575.2276-.3059.1259-.0003.2274-.13673.2275-.30589 0-.16932.1017-.30575.2276-.3059.1259-.00031.2274-.13674.2276-.3059 0-.16931.1016-.30574.2275-.3059.1259-.0003.2274-.13673.2276-.30589 0-.16932.1016-.30575.2276-.3059.1259-.0003.2274-.13673.2275-.3059 0-.16809.0798-.30574.1772-.30589.0973-.00031.2338-.06317.3034-.13965.0735-.08091.0469-.09314-.0632-.02921-.2346.13597-.2373.05889-.0158-.43147.0957-.21152.2232-.35407.2832-.3166.0601.03747.0431-.25726-.0377-.65477-.0809-.39767-.1616-.8455-.1795-.99539-.0179-.149889-.157-.390783-.3093-.535319-.1522-.144537-.2235-.167936-.1584-.051848.081.14423.0517.186597-.0924.13383-.1159-.04252-.1988-.139337-.184-.215352.0147-.076016-.3608-.115323-.8345-.087334-1.2793.075404-1.3755.090393-1.3059.204033.0698.113794-.3894.354688-.5905.309568-.0688-.015448-.0904.0286-.0479.097733.1095.178799-.1582.570039-.3902.570039-.1073 0-.1951.1375-.1953.30544 0 .16931-.1016.30574-.2275.30589-.1259.00031-.2274.13674-.2276.3059 0 .16809-.1025.30728-.2277.30942s-.2097.11349-.1877.24762c.022.13414-.0764.33909-.2187.45548-.2238.18293-.2407.18048-.1246-.01789.1156-.19792.0988-.20052-.1226-.01958-.2779.22728-.3519.40286-.105.249.2563-.15968.1678.1788-.1049.40195-.2214.18094-.2382.17833-.1226-.01958.1156-.19792.0987-.20052-.1226-.01958-.2889.23631-.348.40042-.0853.23677.104-.06485.1437-.02325.1011.10568-.0386.11685-.1669.21398-.2851.21581-.1183.00199-.1962.11716-.173.25619.0413.24885-.2004.49494-.4971.50626-.0834.00321-.1329.11945-.1097.25848.0231.13903-.0387.30299-.1373.36433-.12.07479-.1387.04558-.0564-.08856.0795-.1297.0634-.1632-.0458-.09513-.0927.05766-.1343.195-.0924.30497.0418.10997-.0425.29703-.1874.41572-.2295.18782-.2464.18598-.1296-.01377.1156-.19791.0988-.20051-.1225-.01958-.278.22729-.352.40287-.105.24901.2932-.18278.1479.18537-.1871.47337-.3353.28846-.3365.28831-.1138-.01453.2065-.28081.2039-.28922-.0315-.10355-.141.11135-.2232.28954-.1827.39614.0405.10661-.0449.29076-.1898.40944-.2251.18415-.2448.18431-.1352.00077.0853-.1427.0718-.17956-.0402-.10966-.0927.05766-.1342.195-.0924.30497.0419.10997-.0464.29703-.1961.41572-.2535.20067-.2572.19424-.0522-.09024.1884-.26185.1887-.27745.0017-.1089-.1202.10844-.2193.31477-.2202.45854-.001.14377-.104.26154-.2292.26169-.1259.00031-.2274.13674-.2276.3059 0 .16809-.1025.30727-.2277.30941-.1252.00215-.2097.11349-.1877.24763.022.13413-.0764.33908-.2187.45548-.2209.1806-.2399.1802-.1302-.0034.0853-.1427.0718-.1795-.0402-.1096-.0927.0576-.1343.195-.0924.3049.0419.11-.0464.2971-.1961.4158-.2536.2006-.2572.1942-.0522-.0903.1884-.2618.1887-.2774.0016-.1089-.1201.1085-.2192.3148-.2201.4586-.0011.1437-.1041.2615-.2292.2617-.126.0003-.2275.1367-.2276.3059 0 .1693-.1017.3057-.2276.3059-.1259.0003-.2274.1367-.2275.3058 0 .1694-.1017.3058-.2276.3059-.1259.0004-.2274.1368-.2276.3059 0 .1694-.1016.3058-.2275.3059-.126.0003-.2275.1368-.2276.3059 0 .1693-.1017.3058-.2276.3059-.1259.0003-.2274.1368-.2275.3059 0 .1693-.1017.3058-.2276.3059-.1259.0003-.2274.1368-.2276.3059 0 .1693-.1016.3058-.2275.3059-.126.0003-.2275.1368-.2276.3059 0 .1693-.1017.3058-.2276.3059-.1259.0003-.2274.1367-.2275.3059 0 .1681-.1026.3073-.2278.3094-.1251.0022-.2096.1135-.1876.2476.022.1342-.0765.3391-.2188.4555-.1733.1417-.221.1484-.1447.0204.1661-.2787.0157-.2339-.2268.0676-.1414.1759-.1474.2219-.0186.1439.2836-.1718.2288.1396-.067.3816-.2186.1786-.2376.178-.1282-.005.0877-.1469.0722-.1798-.0493-.104-.0977.0608-.1446.1645-.1041.2304.0404.066-.0318.2504-.1605.4101-.1286.1595-.1842.1935-.1235.0752.071-.1376.0502-.1771-.0579-.1096-.0927.0576-.1343.195-.0924.305.0418.1099-.0425.297-.1874.4157-.2251.1841-.2449.1843-.1352.0007.0877-.1468.0722-.1797-.0493-.104-.0977.0609-.1446.1646-.104.2305.0403.066-.0319.2504-.1606.4101-.1286.1595-.1907.2042-.1379.0989.1376-.2739-.0006-.2357-.2447.0676-.1414.1759-.1473.222-.0185.144.2836-.1718.2288.1396-.067.3816-.2187.1786-.2376.178-.1282-.0051.0877-.1468.0722-.1797-.0493-.104-.0977.0609-.1469.1608-.1093.2221.1026.1673-.1763.5557-.399.5557-.1072 0-.1951.1375-.1952.3054 0 .1693-.1017.3058-.2276.3059-.1259.0003-.2274.1367-.2276.3059 0 .1693-.1016.3057-.2275.3059-.126.0003-.2274.1367-.2276.3059 0 .1693-.1016.3057-.2276.3059-.1259.0003-.2274.1367-.2275.3059 0 .1693-.1017.3057-.2276.3059-.1259.0003-.2274.1367-.2276.3059 0 .1693-.1016.3057-.2275.3059-.126.0003-.2275.1367-.2276.3059 0 .1693-.1017.3057-.2276.3059-.1259.0003-.2274.1367-.2275.3059 0 .1693-.1017.3057-.2276.3059-.1259.0003-.2274.1367-.2276.3063-.0001.1926-.0845.287-.2277.255-.1251-.0282-.1787-.0018-.1191.0583.1704.1717-.1766.7028-.3815.5842-.1002-.0579-.1332-.0508-.0736.0158.1664.1858-.1733.7164-.3816.596-.1001-.0579-.1332-.0508-.0735.0158.0596.0667.0402.2497-.0433.4068-.2147.4044-1.5054.4038-1.8686-.0009-.1416-.1577-.2374-.3782-.2132-.4901.0245-.1119-.0581-.2067-.1832-.2107-.1252-.0041-.2278-.1449-.2278-.3129-.0001-.1692-.1016-.3056-.2275-.3059-.1259-.0002-.2276-.1366-.2276-.3059-.0001-.1692-.1016-.3056-.2276-.3059-.1259-.0002-.2275-.1366-.2275-.3059-.0002-.1692-.1017-.3056-.2276-.3059-.1259-.0002-.2276-.1366-.2276-.3059-.0001-.168-.1025-.3071-.2275-.3091-.1252-.002-.218-.1218-.2067-.266.0114-.1444-.0362-.2268-.1062-.1832-.1673.1043-.4665-.4658-.3264-.6222.0596-.0666.0265-.0738-.0736-.0158-.2083.1204-.548-.4102-.3816-.596.0596-.0666.0266-.0738-.0736-.0158-.2049.1185-.5519-.4125-.3815-.5842.0596-.0602.0061-.0865-.1191-.0583-.1432.0319-.2276-.0624-.2277-.255-.0002-.1696-.1017-.306-.2276-.3063-.1259-.0002-.2276-.1366-.2276-.3059-.0001-.1692-.1016-.3056-.2275-.3059-.1259-.0002-.2276-.1366-.2276-.3059-.0001-.168-.088-.3055-.1952-.3055-.232 0-.4998-.3912-.3902-.57.0424-.0691-.0132-.1069-.1238-.0838-.1137.0238-.2011-.0909-.2011-.2639-.0001-.1682-.0879-.3059-.1952-.3059-.2443 0-.4975-.395-.3781-.5899.0492-.0801.014-.0986-.0781-.0413-.1956.1219-.5275-.4177-.3671-.5968.0596-.0665.0265-.0737-.0736-.0157-.205.1185-.552-.4125-.3816-.5843.0596-.0601.0061-.0864-.1191-.0583-.1432.032-.2275-.0624-.2277-.2549-.0001-.1697-.1016-.3061-.2276-.3064-.1259-.0001-.2275-.1366-.2275-.3059-.0002-.1692-.1017-.3056-.2276-.3059-.1259-.0001-.2276-.1366-.2276-.3059-.0001-.1679-.088-.3054-.1952-.3054-.232 0-.4997-.3913-.3902-.5701.0425-.0691-.0132-.1069-.1238-.0838-.1136.0239-.201-.0908-.201-.2638-.0002-.1683-.088-.3059-.1953-.3059-.2319 0-.4997-.3913-.3902-.57.0425-.0692-.0132-.107-.1238-.0839-.1136.0239-.201-.0908-.201-.2638-.0001-.1696-.1016-.306-.2276-.3064-.1259-.0001-.2275-.1365-.2275-.3059-.0002-.1691-.1017-.3055-.2276-.3058-.1252-.0002-.2283-.1158-.2294-.2569-.001-.141-.0631-.3129-.138-.3819-.0788-.0726-.0892-.0287-.0248.1039.0613.1262.0061.0988-.1226-.0607-.1286-.1597-.1914-.3596-.1394-.4443.0521-.0849.0191-.1073-.0731-.0498-.1956.1219-.5275-.4177-.3671-.5968.0596-.0665.0265-.0737-.0736-.0157-.205.1185-.5519-.41251-.3816-.58427.0596-.06011.0061-.08642-.1191-.05828-.1432.03197-.2275-.0624-.2277-.25496-.0001-.16825-.088-.3059-.1952-.3059-.2443 0-.4975-.39507-.3781-.58992.0491-.08015.0139-.09865-.0781-.0413-.1577.0982-.4383-.2545-.4713-.59237-.0083-.08412-.1002-.1531-.2046-.15341-.1042-.00015-.1898-.1378-.1898-.30589-.0002-.16916-.1017-.30559-.2276-.3059-.1259-.00015-.2275-.13658-.2275-.3059-.0002-.16916-.1017-.30559-.2276-.30589-.1259-.00016-.2276-.13659-.2276-.3059-.0001-.16916-.1016-.30559-.2275-.3059-.126-.00015-.2276-.13658-.2276-.30589-.0002-.16916-.1017-.30559-.2276-.3059-.1259-.00015-.2275-.13658-.2275-.3059-.0002-.16916-.1017-.30559-.2276-.30589-.1259-.00016-.2276-.13659-.2276-.3059-.0001-.16794-.088-.30544-.1952-.30544-.232 0-.4998-.39124-.3902-.57004.0425-.06913-.0132-.10691-.1238-.08381-.1137.02386-.201-.09085-.201-.26384-.0002-.16962-.1017-.30605-.2276-.30635-.1259-.00016-.2276-.13659-.2276-.3059-.0001-.16916-.1016-.30559-.2275-.3059-.1252-.00015-.2284-.11578-.2294-.2568-.0011-.14102-.0631-.31293-.1381-.38191-.0789-.07265-.0884-.02891-.0229.10385.0624.12619-.0237.05935-.1913-.14866s-.2708-.4333-.2294-.500908c.0413-.06745-.0152-.103852-.1258-.080757-.1112.023249-.1782-.060415-.1503-.187362.0279-.126183.0021-.180478-.0571-.120829-.0593.059803-.3164-.000154-.5713-.133066-.5076-.264601-2.1103-.3829827-1.9645-.144995zm39.1427 26.973487c2.4406.0237 6.4344.0237 8.8752 0 2.4405-.0235.4437-.0428-4.4376-.0428s-6.8781.0193-4.4376.0428zm-44.148.153c1.6064.0248 4.2348.0248 5.8409 0 1.6063-.0248.2921-.0451-2.9204-.0451s-4.5266.0203-2.9205.0451zm18.7743 6.3082c-1.0013.0619-2.3325.1288-2.9584.1485-.8696.0275-1.0484.0676-.7585.1701.2675.0945.1591.1086-.3681.0477-1.0754-.124-4.2675.0956-4.0094.2759.1402.0981.0907.1109-.1558.0404-.4915-.1403-3.2254.0775-3.1204.2487.0461.0752-.0235.0953-.1549.0445-.3104-.1201-2.5299.0889-2.4435.23.0365.0594-.1773.0793-.475.0442-.3049-.0359-.5035-.0026-.4551.0765.0485.0789-.15.1123-.4551.0765-.4115-.0485-.5124-.0168-.421.132.0779.1271.0594.158-.0525.0882-.2156-.1343-1.2626.0523-1.1673.2079.0385.0627-.1088.0797-.3272.0376-.2549-.0492-.3619-.019-.2986.0843.0625.102-.0212.1292-.2288.0745-.2438-.0643-.296-.0351-.2043.1144.0854.1393.0641.1641-.0694.0807-.2142-.1333-2.008.6654-1.8979.8452.0373.0609-.0508.1011-.196.0897-.1617-.0129-.2442.0677-.2133.2084.0279.1262.0018.1802-.0578.1201-.164-.1652-.6992.176-.5803.3701.0583.0952.0347.126-.0542.0707-.2002-.1248-1.45169 1.2297-1.32577 1.4351.05159.0841.00334.134-.10726.1109-.11105-.0233-.19161.0768-.18008.2239.01183.1513-.04839.223-.13957.1661-.10089-.0629-.12334-.0026-.06038.1626.05492.1444.03762.2236-.03854.1762-.18175-.1132-.80847 1.5821-.71623 1.9374.04309.1664.00835.2355-.08829.1753-.10241-.0638-.13245.044-.0836.301.04688.2477.0173.364-.07767.3048-.09877-.0617-.11804.0896-.05401.4253.05947.3127.04672.4387-.03201.3154-.18312-.2866-.68073 3.068-.57302 3.8638.05128.3792.03702.5056-.03656.3223-.08359-.2088-.15429.0686-.22893.8981-.58136 6.4685-.51809 16.6198.14519 23.2637.30115 3.0174.37518 3.4561.56391 3.3384.0933-.0581.10999-.0217.04141.0901-.17234.2811.0531 1.5696.25291 1.4452.10013-.0624.12182-.0319.05476.0773-.16066.2623.05492 1.114.25124.9917.09694-.0604.11864-.0294.0537.0765-.14245.2323.04279.8172.22317.7049.07662-.0479.09422.031.03914.1757-.06736.177-.04263.2269.07586.153.11833-.0737.14306-.0239.07586.1529-.07328.1921-.04613.229.10103.1374.13184-.0823.16461-.0661.09528.0469-.13912.227.34939.9717.5539.8443.08845-.0552.11378-.0257.05719.0667-.12744.2077 1.22387 1.6098 1.42847 1.4824.0829-.0517.1319-.0028.109.1087-.0229.1114.0751.1933.2178.1823.1428-.0111.2452.0577.2276.153-.0176.0951.0868.1636.2318.1522.1452-.0115.2335.0287.1962.0894-.0995.1625.9735.6427 1.1668.5222.1054-.0656.1204-.0303.0417.098-.0916.1495-.0394.1787.2044.1145.2098-.0554.2914-.0279.2275.0764-.0638.1043.0178.1317.2276.0765.2098-.0554.2914-.0278.2276.0765-.0639.1043.0177.1317.2275.0765.2076-.0548.2913-.0276.2288.0744-.0632.1033.0437.1336.2986.0843.2185-.042.3638-.022.323.0445-.1008.1644 1.2282.3547 1.4616.2093.1116-.0696.147-.0524.0883.0434-.1223.1993 1.379.4047 2.0641.2822.3355-.06.396-.0473.1923.0402-.3567.153 1.8044.3822 6.6693.7077 10.6191.7104 21.3216.6802 32.3815-.0918 1.4552-.1015 2.5343-.2245 2.3981-.2733-.1364-.0488.4137-.0963 1.2226-.1055 1.7635-.0204 5.0085-.497 4.7085-.6917-.1222-.0793.0028-.0922.3129-.0322.333.0645.483.0451.4219-.0545-.0587-.0957.0566-.1255.3023-.0783.2716.0525.3637.0217.291-.0968-.0678-.1104-.0232-.1412.1229-.0846.3274.1267 1.3285-.2338 1.2058-.4341-.0616-.1003-.029-.1196.0836-.0494.2446.1524 1.0996-.2115.975-.4149-.0564-.0919-.0238-.1129.0776-.0499.2063.1287.8301-.2682.672-.4276-.0594-.06-.0016-.0678.1284-.0174.133.0513.3303-.0248.4506-.1743.1826-.2269.1828-.2468.0007-.1362-.1456.0884-.1782.0728-.1031-.0497.0604-.0985.169-.1421.2413-.097.185.1152 1.4146-1.0953 1.301-1.2806-.0512-.0836-.0132-.2016.0845-.2625.1182-.0737.14-.0389.0652.104-.0619.1182.0288.0428.2013-.1675.1727-.2103.2819-.472.2426-.5815s-.0111-.1615.0627-.1156c.1723.1075.3498-.35.2187-.5639-.0564-.0921-.0285-.1183.0644-.0604.1989.1238.4017-.439.2483-.6892-.0639-.1042-.0432-.1369.0499-.0788.2023.126.3851-.5824.2634-1.0208-.0754-.2713-.0608-.2897.0804-.1017.1378.1832.1605.1311.1133-.2596-.0326-.269-.0113-.4592.0469-.4228.1661.1035.4943-2.3215.389-2.8749-.0718-.3771-.0554-.4409.0689-.2664.1207.1696.1449-.0297.0922-.7647-.0393-.5468-.0212-.8584.0399-.6923.2162.5869.6029-7.0991.6038-12.0025.0011-5.3834-.487-13.4398-.7731-12.7629-.0839.1985-.0962.1302-.0368-.2056.1254-.7102-.0797-2.1236-.2683-1.849-.1021.1487-.1157.1076-.0467-.1396.1177-.4208-.0564-1.5928-.2213-1.4902-.0641.04-.0823-.1076-.0406-.3279.0466-.245.0172-.3637-.0758-.3059-.0929.0578-.1223-.0609-.0759-.3059.0489-.2569.0188-.3648-.0836-.301-.1012.063-.1282-.0214-.0739-.2306.0548-.2116.0277-.2938-.0758-.2295-.1035.0644-.1308-.0178-.0759-.2294.0471-.1815.0237-.2915-.052-.2442-.0758.0471-.1482-.09-.161-.3046-.0277-.4658-1.1654-2.1221-1.4165-2.062-.0966.0231-.1347-.0251-.0845-.1071.0989-.1612-.778-.8773-.9972-.8144-.0734.0211-.1165-.0477-.0956-.153.0208-.105-.086-.1809-.2377-.1682-.1516.0125-.2373-.0156-.1905-.0627.1421-.1433-.5078-.5211-.6953-.4043-.1164.0724-.1334.041-.0507-.0936.0909-.1483.0543-.1757-.1362-.1018-.1433.0553-.2235.0407-.1786-.0326.1119-.1828-1.6707-.8385-1.9673-.7238-.1539.0595-.2008.0309-.1321-.081.0727-.1186-.0194-.1493-.291-.0968-.2184.042-.3638.022-.323-.0445.1008-.1645-1.2282-.3547-1.4616-.2093-.1266.0789-.1468.0522-.0632-.0841.0965-.1574-.0176-.1809-.5377-.1106-.363.0491-.5733.0352-.4671-.0309.3266-.2036-6.3165-.8628-7.3228-.7266-.3341.0451-.5234.0298-.4209-.0343.6481-.4038-19.6423-.7932-24.7796-.4755zm-31.70978828 26.0023c0 11.9873.01805478 16.8913.04005298 10.8976.0219981-5.9938.0219981-15.8016 0-21.7952-.0219982-5.9936-.04005298-1.0897-.04005298 10.8976zm6.65254828-4.8944c0 .6309.02685.8891.05947.5736.03277-.3154.03277-.8316 0-1.1471-.03262-.3154-.05947-.0574-.05947.5735zm68.74074 4.2061c-.0002 2.2713.0209 3.2217.0469 2.1122.0259-1.1096.0259-2.9679.0001-4.1296-.0258-1.1618-.047-.2539-.047 2.0174zm-68.74317 4.512c0 .5468.02761.7705.06114.4971.03368-.2735.03368-.7207 0-.9942-.03353-.2735-.06114-.0497-.06114.4971zm24.79417 21.3704c.2713.034.7149.034.9861 0 .2713-.0338.0493-.0616-.493-.0616-.5424 0-.7643.0278-.4931.0616zm6.9883.1569c1.3612.0253 3.5458.0253 4.8548-.0001 1.3089-.0256.1952-.0462-2.4749-.0462-2.6701.0001-3.7411.0209-2.3799.0463zm-16.3944 6.8829c3.6089.0228 9.5143.0228 13.123 0 3.609-.023.6562-.0416-6.5615-.0416-7.2176 0-10.1702.0186-6.5615.0416z"></path></g></svg></svg></g></g></svg></g><g id="dark-icon"><svg xmlns="http://www.w3.org/2000/svg" version="1.1" xmlns:xlink="http://www.w3.org/1999/xlink" width="1000" height="1000"><g><g transform="matrix(10.869565217391305,0,0,10.869565217391305,54.3478260869565,0)"><svg xmlns="http://www.w3.org/2000/svg" version="1.1" xmlns:xlink="http://www.w3.org/1999/xlink" width="82" height="92"><svg fill="none" height="92" viewBox="0 0 82 92" width="82" xmlns="http://www.w3.org/2000/svg" xmlns:xlink="http://www.w3.org/1999/xlink"><clipPath id="a"><path d="m0 0h82v92h-82z"></path></clipPath><g clip-path="url(#a)" clip-rule="evenodd" fill="#fff" fill-rule="evenodd"><path d="m17.8919.229125c-.9909.465269-1.3777 1.595405-.9125 2.666505.1174.27071 4.2079 5.86067 9.0896 12.42217 4.8819 6.5615 8.8648 11.9394 8.8512 11.9509-.0138.0115-5.7939.0688-12.8447.1274-13.99065.1163-14.02675.1186-16.19516 1.026-2.08073.8706-3.53093 2.2906-4.67165 4.5744-1.1376865 2.2774-1.055459.1873-1.055459 26.8293 0 26.715-.0858683 24.6134 1.099299 26.8999 1.18456 2.2855 3.34903 3.9505 6.13278 4.718l1.26376.3483h32.23863 32.2387l1.3654-.3501c4.4049-1.1294 6.8977-3.9942 7.3512-8.4486.2048-2.0126.2103-43.9633.0059-46.0813-.1682-1.7438-.3969-2.6026-1.028-3.8614-1.6128-3.2169-4.1599-5.0601-7.6945-5.5678-.6352-.0913-6.0522-.1537-13.4806-.1555-10.6746-.0026-12.407-.0337-12.3358-.2206.0455-.1197 3.9932-5.4709 8.7727-11.8917 4.7795-6.42092 8.8161-11.91513 8.9701-12.20956.37-.70662.2737-1.71256-.215-2.246961-.8987-.983-2.144-1.011908-3.1471-.072957-.3297.308497-2.8024 3.520568-5.495 7.137798-2.6926 3.61718-7.0735 9.48828-9.7352 13.04668l-4.8395 6.47-.6594-.0462-.6593-.046-7.0288-9.4828c-11.6743-15.75051-12.6216-17.004533-13.0944-17.333831-.6792-.4732221-1.5465-.549696-2.2872-.202044zm.3066.032117c-1.0258.304062-1.5709 1.591738-1.0874 2.568918.2142.433 5.3305 7.37654 14.2604 19.35394 2.0672 2.7725 3.7057 5.0923 3.6411 5.1548-.0647.0626-5.8522.1599-12.8612.2161-14.32446.1152-14.42565.1227-16.72074 1.2304-1.63848.7909-3.1119 2.2986-3.96922 4.062-1.252379 2.5755-1.156498.3383-1.156498 26.9784 0 25.7767-.046575 24.3417.855958 26.3695 1.08307 2.4331 3.06715 4.0992 5.97105 5.0137l1.36541.4301h32.08694c25.3828 0 32.3003-.0409 33.1081-.1952 4.2467-.8116 6.9184-3.2202 7.8071-7.0381.2585-1.1102.2745-2.5368.2745-24.5035 0-26.222.0728-24.5025-1.1373-26.8601-1.231-2.3981-2.8922-3.9422-5.1975-4.8312-1.8-.6942-2.6274-.7326-15.7819-.7332-10.366-.0005-12.4203-.035-12.487-.2102-.046-.1211 3.6157-5.1759 8.67-11.9682 4.8122-6.46723 8.8874-12.0422 9.0561-12.38863.7528-1.54784-.5565-3.106996-2.2202-2.643868-.3016.083969-.713.304367-.9143.48974-.2014.185221-3.1113 4.019178-6.4666 8.519688-3.3554 4.50047-7.7819 10.43657-9.8368 13.19137l-3.7364 5.0086-.7165.0004-.7165.0005-5.8056-7.8386c-11.2682-15.21426-14.0163-18.842803-14.4653-19.100216-.5987-.343216-1.2579-.4437024-1.8197-.277142zm12.9797 33.496958c-3.6568.2087-3.8477.2672-.531.1622 5.2219-.165 19.5225-.0966 22.4533.1074 11.6473.8113 14.9469 1.3761 17.4008 2.9791 2.5602 1.6725 3.6158 3.9784 4.2842 9.3594 1.1227 9.0367.7672 24.8086-.6894 30.588-.4301 1.7069-1.0662 2.823-2.2473 3.9433-2.3381 2.2178-5.27 2.9625-14.2728 3.6257-13.5701.9995-32.5732.6052-41.1135-.853-4.4341-.7571-7.10782-2.6515-8.2141-5.8199-1.64971-4.7242-2.20391-21.4002-1.03315-31.0879.64386-5.3277 1.51134-7.5988 3.51725-9.2092 2.3649-1.8986 5.3529-2.5497 15.2875-3.3314 1.0426-.0821 1.3047-.1321.7586-.1448-.82-.019-4.673.2927-7.358.5954-4.9825.5618-7.47 1.451-9.3444 3.3407-.55297.5575-1.19365 1.3885-1.4241 1.8467-.80316 1.5978-1.40803 4.6623-1.90322 9.6419-.26458 2.6614-.36243 12.6812-.16202 16.5949.30676 5.989.82273 10.0106 1.52227 11.8669.96185 2.5517 3.06107 4.4241 5.96557 5.3203 4.6598 1.4381 21.6644 2.347 34.702 1.855 10.459-.3948 16.7575-1.0393 19.6424-2.0099 3.2477-1.0928 5.2595-3.3754 5.9947-6.8019 1.5109-7.0418 1.5894-25.0106.1417-32.4844-.6451-3.3305-1.4123-4.9081-3.0588-6.2896-2.5471-2.137-5.1835-2.698-16.8791-3.5921-3.7142-.2839-19.6096-.4214-23.4394-.2028z"></path><path d="m17.9403.312313c.0508.082745-.0229.101711-.1714.044202-.144-.055673-.2218-.037778-.1742.03992.0894.145913-.1843.383595-.4497.39063-.0834.002142-.1315.175279-.1069.384665.0262.22331-.0052.30773-.0759.20403-.0664-.09727-.1206.18782-.1206.6355 0 .47445.0528.73859.127.6355.0767-.10706.0978-.04297.0534.16228-.0445.20511-.0047.32578.1007.3059.0958-.0182.1742.10462.1742.27286.0001.16962.1016.30605.2276.30636.1259.00015.2275.13658.2275.30589.0002.16794.1026.30712.2276.30911.1251.00199.218.12175.2066.26598-.0114.14438.0363.22682.1062.18323.1231-.07663.4133.3345.418.59221.0012.07021.0531.17345.1151.22943.0621.05613.0546-.00123-.0165-.12741-.1114-.19776-.0939-.20051.1274-.01958.2959.24197.3506.55337.0671.38161-.1288-.078-.1229-.03196.0185.14393.2441.30329.3823.34153.2447.0676-.0528-.10508.0093-.06057.1379.09896.1287.15968.1915.35958.1394.44431-.052.08489-.0191.10722.0732.04971.1561-.09728.4847.31339.4332.54144-.0125.05598.0393.15922.1152.22942.0812.07495.0922.03288.0267-.10202-.0613-.12618-.0061-.0988.1226.06072.1286.15968.1969.35056.1517.42444-.0454.07387.008.11532.1186.09222.1137-.02386.201.09085.201.26384.0002.16962.1017.30605.2276.30636.1259.00015.2276.13658.2276.30589.0001.16916.1016.30559.2275.3059.126.00015.2276.13658.2276.3059.0002.16916.1017.30559.2276.30589.1259.00016.2275.13658.2275.3059.0002.16916.1017.30556.2276.30586.1259.0002.2276.1366.2276.3059.0001.1692.1016.3056.2276.3059.1259.0002.2275.1366.2275.3059.0002.1692.1017.3056.2276.3059.1259.0002.2276.1366.2276.3059.0001.1692.1016.3056.2275.3059.1259.0002.2276.1366.2276.3059.0001.1692.1016.3056.2276.3059.1259.0002.2275.1366.2275.3059.0002.1692.1017.3056.2276.3059.1259.0002.2276.1366.2276.3059.0001.1692.1016.3056.2275.3059.1259.0001.2276.1366.2276.3059.0001.1692.1016.3056.2276.3059.1259.0001.2275.1366.2275.3059.0002.1691.1017.3056.2276.3059.1259.0001.2276.1366.2276.3059.0001.1691.1016.3056.2275.3059.1259.0001.2276.1366.2276.3059.0001.1691.1016.3056.2276.3059.1259.0001.2275.1366.2275.3059.0002.1691.1017.3056.2276.3059.1252.0001.2283.1157.2294.2568.001.141.0631.3129.138.3819.0788.0726.0892.0287.0248-.1039-.0613-.1262-.0061-.0988.1225.0607.1287.1597.2009.3442.1606.4101-.0405.0659.0063.1696.104.2305.1216.0757.137.0428.0493-.104-.1096-.1835-.0899-.1834.1352.0008.1449.1186.2292.3057.1874.4157-.0419.1099-.0003.2473.0924.3049.1081.0675.1289.028.0579-.1096-.0607-.1182-.0051-.0843.1235.0752.1287.1597.2009.3442.1605.4101-.0405.0659.0064.1696.1041.2305.1215.0757.137.0428.0493-.104-.1097-.1836-.0907-.184.1302-.0034.1423.1164.2407.3214.2187.4555s.0625.2455.1877.2476c.1252.0022.2277.1413.2277.3094.0002.1692.1017.3056.2276.3059.1259.0002.2276.1366.2276.3059.0001.1692.1016.3056.2275.3059.126.0002.2276.1366.2276.3059.0002.1692.1016.3056.2276.3059.1259.0002.2275.1366.2275.3059.0002.1692.1017.3056.2276.3059.1259.0002.2276.1366.2276.3059.0001.1692.1016.3056.2275.3059.126.0002.2276.1366.2276.3059.0002.1692.1016.3056.2276.3059.1259.0001.2275.1366.2275.3059.0002.1679.088.3054.1953.3054.232 0 .4997.3913.3902.5701-.0425.0691.0132.1069.1238.0838.1136-.0239.201.0908.201.2638.0002.1696.1016.3061.2276.3064.1259.0001.2275.1366.2275.3059.0002.1691.1017.3056.2276.3059.1252.0001.2306.1378.2346.3059.0037.1679.087.2889.185.2687.2073-.0427.5465.5191.3772.6245-.0628.039-5.8148.1171-12.7821.1736-7.0146.0569-13.06042.1695-13.54742.2522-.48365.0823-1.02981.1071-1.21369.0551-.27429-.0776-.29341-.0631-.10665.0813.17978.1389.11606.1571-.30342.0867-.40507-.068-.47698-.0498-.30343.0768.18373.1342.16188.1516-.11393.0906-.18797-.0415-.30646-.0181-.26337.0521.10589.1727-.48533.3504-.70683.2125-.11788-.0734-.13517-.0427-.05218.0925.09087.1484.05431.1757-.13624.1019-.17538-.0678-.22484-.0429-.15171.0764.07327.1195.02381.1444-.15171.0765-.17538-.0677-.22484-.0428-.15172.0765.07237.1181.02504.1448-.142.0803-.15459-.0598-.23682-.0259-.21452.0887.01988.1022-.08071.1765-.22347.1655-.14276-.0112-.24516.0577-.22757.1529.0176.0952-.0848.1739-.22772.175-.14276.0009-.34407.0869-.44754.1912-.10332.1042-.1282.1893-.05523.1893.07298 0-.02564.17-.21922.3777s-.40112.347-.46135.3095c-.06008-.0374-.23789.0797-.39506.2604s-.20041.2783-.09618.2168c.28294-.1668.22908.1424-.06706.3847-.21862.1787-.23758.178-.1282-.005.08526-.1427.07176-.1796-.0402-.1097-.0927.0577-.13275.199-.0889.314.04369.115-.00395.2611-.1059.3246-.12653.0787-.1464.0518-.06281-.0846.0795-.1297.06342-.1632-.04581-.0952-.0927.0577-.12577.2172-.07343.3546.06296.1658.03595.2127-.08086.1401-.11834-.0737-.14307-.0239-.07586.1529.06736.177.04263.2268-.07586.153-.11833-.0737-.14306-.0239-.07585.1529.06736.177.04263.2268-.07586.153-.11833-.0737-.14306-.0239-.07585.1529.06736.177.04263.2268-.07586.153-.11833-.0738-.14306-.0239-.07585.1529.07327.1921.04612.229-.101044.1374-.132292-.0826-.164607-.0661-.094516.0481.1643.268-.229994 1.4598-.402794 1.2177-.099067-.1388-.113935-.1143-.050368.0832.04961.154.043237.6702-.013806 1.1471-.07176.5988-.130472.7578-.189639.514-.047031-.1942-.085565 10.2887-.085565 23.2955 0 13.0067.049611 23.4896.110295 23.2954.065995-.2114.08966-.0256.059015.4628-.028219.4488-.001517.7345.059623.6349.065539-.1069.153077.0454.213914.372.056588.3042.054918.6313-.003795.7271-.06296.1026-.039445.132.057499.0716.198893-.1239.401731.4389.248353.6891-.072822.1189-.042329.1363.091784.0526.147164-.0916.174314-.0547.101044.1374-.06721.1768-.04248.2267.07585.1529.11849-.0738.14322-.024.07586.153-.06721.1768-.04248.2267.07585.1529.11849-.0738.14322-.024.07586.153-.06266.1649-.04036.2254.06023.1627.09497-.0592.14064.0141.11211.1797-.02867.1671.04354.2812.17948.2835.12516.0021.22772.1413.22772.3094.00015.1679.08207.3054.18205.3054.25139 0 .5137.2885.56149.6173.02214.1513.15732.2923.30053.3136.31162.046.7399.3805.6296.4915-.12076.1218.23971.4968.38839.4043.19024-.1187.76918.227.66495.397-.04976.0811.02533.0997.17234.0428.17553-.0679.22499-.0429.15171.0765-.07312.1193-.02366.1443.15172.0765.17552-.0679.22498-.043.15171.0765-.07313.1193-.02367.1442.15171.0764.19055-.0738.22711-.0465.13624.1019-.07965.1299-.06539.1658.03974.1003.09027-.0562.7308.0628 1.42351.2643.79163.2305 1.148.3937.95927.4396-.16506.0401.10954.047.61019.0153.50064-.0316.79299-.0047.64962.0597-.14321.0645 2.45109.1001 5.76499.0793 3.3142-.0209 17.7682-.0706 32.1201-.1105 14.3519-.04 26.3808-.09 26.7308-.1112.4017-.0244.5695-.0871.4551-.17-.1067-.0774.0373-.0948.3497-.0423.3363.0566.4541.0393.3212-.047-.1555-.1008-.0876-.1632.2617-.2404.2594-.0575.5522-.0543.6505.0069.1203.0751.1382.0452.0546-.091-.0909-.1484-.0543-.1758.1363-.1019.1741.0673.2246.0427.1529-.0746-.0739-.1203-.0002-.147.2347-.0851.1881.0496.3016.0494.2521-.0004-.1453-.1467.499-.5286.6905-.4092.1163.0724.1333.041.0506-.0936-.0899-.1468-.055-.1759.1266-.1057.1545.0598.2368.0259.2145-.0887-.0199-.1021.1004-.1889.2673-.1928s.287-.0878.267-.1866c-.02-.0987.0994-.2529.2655-.3423.166-.0897.3019-.1141.3019-.0545 0 .0597.1686-.0511.3746-.2462.206-.1952.3366-.4167.2904-.4922-.1049-.171.2366-.6063.397-.5064.0646.0402.108-.0465.0966-.1929-.0114-.1462.0566-.2515.151-.2337.0945.0177.1628-.0855.1517-.2294-.0109-.144.0628-.2454.1641-.2253.1137.0225.1474-.0604.088-.2163-.064-.1684-.0374-.2161.0797-.1432.1183.0738.143.0239.0758-.1529-.0673-.177-.0426-.2268.0759-.153.1183.0738.1431.0239.0759-.1529-.0639-.1676-.041-.2258.0634-.1608.1057.066.133-.0146.0777-.2282-.0548-.2115-.0277-.2938.0758-.2294.1029.0641.1343-.0244.0866-.2438-.0623-.2869-.045-.306.1044-.1148.1526.1954.1658.1879.0891-.0504-.1298-.4033.072-1.5564.2278-1.3022.068.1109.1203-10.7409.1162-24.1152-.0041-13.3742-.0582-24.1817-.1204-24.0165-.0892.2367-.1343.1667-.2133-.3321-.0553-.3478-.0598-.7582-.0103-.9122.0669-.2075.0524-.2267-.0559-.074-.1118.1575-.1696.1112-.2465-.1982-.0554-.2223-.0539-.4803.0033-.5734.0677-.1105.0337-.1259-.0969-.0444-.1472.0916-.1743.0548-.101-.1373.0672-.1768.0424-.2267-.0759-.153-.1185.0739-.1432.024-.0759-.1529.0672-.1768.0425-.2267-.0758-.153-.1185.0739-.1432.024-.0759-.1529.0672-.1768.0425-.2267-.0758-.153-.1171.073-.1437.0253-.0797-.1431.0593-.1559.0257-.2388-.088-.2163-.1013.02-.1747-.0834-.1634-.2296.0114-.1464-.0397-.2283-.1137-.1821-.1222.076-.1983-.1394-.1525-.4314.0098-.063-.0675-.0974-.1717-.0764-.1044.0211-.1898-.0994-.1898-.2677-.0002-.1682-.0714-.3059-.1581-.3059-.2041 0-1.3694-1.1459-1.3258-1.3036.0182-.066-.0803-.2127-.2188-.3259-.2121-.1734-.232-.1727-.1258.0052.0873.1459.0612.1892-.0846.1401-.1159-.0388-.2108-.1453-.2108-.2365 0-.0911-.0621-.223-.138-.2932-.0816-.0752-.0885-.0409-.0168.0837.0834.1452.0555.1869-.0896.1338-.1159-.0425-.1919-.1598-.169-.2606.023-.1009-.0221-.1438-.1001-.0951-.1918.1194-.6422-.0656-.5451-.2241.0426-.0694-.0024-.176-.1001-.2369-.1191-.0742-.1367-.0439-.0534.0918.0913.1491.054.1755-.1408.1001-.1457-.0564-.2974-.1024-.3373-.1024-.0397 0-.0236-.0796.0358-.1767.0665-.1081.0418-.135-.0637-.0693-.2658.1657-1.4479-.2318-1.2078-.4061.1354-.0981.1062-.1122-.0951-.0458-.1596.0526-.7057.0454-1.2137-.0159-.7374-.0892-.8333-.1287-.476-.196.2462-.0465-5.4202-.0844-12.5921-.0844-12.9382 0-13.0394-.0024-13.0394-.3059 0-.1698.1012-.3059.2274-.3059.1261 0 .2274-.1361.2276-.3054 0-.1693.1016-.3058.2275-.3059.1259-.0003.2274-.1368.2276-.3059 0-.1693.1016-.3058.2276-.3059.1259-.0003.2274-.1368.2275-.3064 0-.1682.0856-.2886.1898-.2676.1044.0211.1789-.0133.1655-.0765-.0511-.244.2156-.6433.3669-.5491.0877.0546.1191.0338.0699-.0463-.1194-.1949.1338-.59.3781-.59.1072 0 .1951-.1375.1952-.3054 0-.1693.1017-.3057.2276-.3059.1259-.0003.2274-.1367.2276-.3059 0-.1693.1016-.3057.2275-.3059.126-.0003.2274-.1367.2276-.3059 0-.1693.1016-.3057.2276-.3059.1259-.0003.2274-.1367.2275-.3059 0-.1681.1026-.3073.2277-.3094.1252-.0021.2097-.1135.1877-.2476-.022-.1342.0765-.3391.2188-.4555.2209-.1806.2398-.1802.1302.0034-.0877.1468-.0723.1797.0493.104.0977-.0609.1445-.1646.104-.2305-.0403-.0659.0319-.2504.1605-.4101.1287-.1595.1842-.1935.1235-.0752-.0734.1424-.0508.1774.0671.104.0977-.0609.1446-.1646.1041-.2305-.0404-.0659.0318-.2504.1605-.4101.1286-.1595.1839-.1869.1226-.0607-.0645.1326-.054.1765.0247.1039.0749-.069.137-.2409.138-.382.0011-.141.1044-.2581.2296-.2603.1251-.0021.21-.1116.1886-.2433-.0214-.1319.1139-.3712.3008-.532.3367-.2895.3377-.2893.1148.0136-.2064.2809-.2039.2893.0316.1036.1409-.1114.2232-.2895.1827-.3961-.0405-.1067.0488-.2908.1986-.4095.2542-.2013.2573-.1953.0449.0903-.2092.2811-.2068.2895.0289.1035.141-.1113.2217-.2937.1792-.4052-.0423-.1115.0064-.2548.1083-.3182.1266-.0788.1464-.0519.0628.0845-.0795.1297-.0634.1632.0459.0952.0927-.0577.1342-.195.0924-.305-.0419-.11.0424-.297.1873-.4157.2252-.1842.2449-.1843.1352-.0008-.0877.1468-.0722.1797.0493.104.0977-.0609.1428-.1675.1001-.2371-.0426-.0695.0416-.2572.1871-.4172.1456-.16.1965-.1843.113-.0541-.1308.2038-.1162.2086.1048.0342.141-.1113.2252-.2845.1869-.385-.0382-.1003.1442-.4222.4051-.7153.2611-.293.3851-.3951.2755-.2268-.1719.264-.1691.2788.0194.1089.1202-.1085.2193-.3149.2202-.4589.001-.144.0846-.2454.186-.2254.1013.02.15-.0531.1085-.1626-.0418-.1095.079-.3323.2682-.4952.3419-.2943.3427-.2943.1192.0096-.2065.2808-.2039.2892.0316.1035.1409-.1113.2262-.2834.1893-.3823-.0367-.099.1088-.3865.3235-.6389.2148-.2524.3404-.3556.2793-.2294-.0642.1326-.0537.1765.025.1038.0749-.0689.137-.2409.1381-.3819.001-.141.1043-.2582.2295-.2603s.21-.1116.1886-.2433c-.0214-.1319.1139-.3712.3008-.532.3367-.2895.3377-.2894.1149.0136-.2065.2808-.2039.2892.0315.1036.141-.1114.2287-.2834.1945-.3824-.034-.099.1141-.3865.3291-.63887.2151-.25236.3384-.3556.2741-.22942-.0678.13322-.0596.17681.0194.10385.075-.06898.137-.24089.1381-.38191s.1044-.25818.2295-.26032c.1252-.00214.2097-.11349.1877-.24762-.022-.13414.0765-.33909.2188-.45548.2237-.18293.2406-.18048.1245.01789-.1156.19792-.0987.20052.1226.01958.2779-.22728.352-.40287.105-.249-.2563.15968-.1678-.1788.105-.40195.2213-.18094.2388-.17818.1274.01958-.0758.13459-.0731.17757.0068.10385.075-.06898.137-.24089.1381-.38191s.1042-.25665.2294-.2568c.1259-.00031.2274-.13674.2276-.3059 0-.16931.1016-.30574.2275-.30589.1259-.00031.2274-.13674.2276-.3059 0-.16932.1016-.30575.2276-.3059.1259-.0003.2274-.13673.2275-.30589 0-.16932.1017-.30575.2276-.3059.1259-.00031.2274-.13674.2276-.3059 0-.16931.1016-.30574.2275-.3059.1259-.0003.2274-.13673.2276-.30589 0-.16932.1016-.30575.2276-.3059.1259-.0003.2274-.13673.2275-.3059 0-.16809.0798-.30574.1772-.30589.0973-.00031.2338-.06317.3034-.13965.0735-.08091.0469-.09314-.0632-.02921-.2346.13597-.2373.05889-.0158-.43147.0957-.21152.2232-.35407.2832-.3166.0601.03747.0431-.25726-.0377-.65477-.0809-.39767-.1616-.8455-.1795-.99539-.0179-.149889-.157-.390783-.3093-.535319-.1522-.144537-.2235-.167936-.1584-.051848.081.14423.0517.186597-.0924.13383-.1159-.04252-.1988-.139337-.184-.215352.0147-.076016-.3608-.115323-.8345-.087334-1.2793.075404-1.3755.090393-1.3059.204033.0698.113794-.3894.354688-.5905.309568-.0688-.015448-.0904.0286-.0479.097733.1095.178799-.1582.570039-.3902.570039-.1073 0-.1951.1375-.1953.30544 0 .16931-.1016.30574-.2275.30589-.1259.00031-.2274.13674-.2276.3059 0 .16809-.1025.30728-.2277.30942s-.2097.11349-.1877.24762c.022.13414-.0764.33909-.2187.45548-.2238.18293-.2407.18048-.1246-.01789.1156-.19792.0988-.20052-.1226-.01958-.2779.22728-.3519.40286-.105.249.2563-.15968.1678.1788-.1049.40195-.2214.18094-.2382.17833-.1226-.01958.1156-.19792.0987-.20052-.1226-.01958-.2889.23631-.348.40042-.0853.23677.104-.06485.1437-.02325.1011.10568-.0386.11685-.1669.21398-.2851.21581-.1183.00199-.1962.11716-.173.25619.0413.24885-.2004.49494-.4971.50626-.0834.00321-.1329.11945-.1097.25848.0231.13903-.0387.30299-.1373.36433-.12.07479-.1387.04558-.0564-.08856.0795-.1297.0634-.1632-.0458-.09513-.0927.05766-.1343.195-.0924.30497.0418.10997-.0425.29703-.1874.41572-.2295.18782-.2464.18598-.1296-.01377.1156-.19791.0988-.20051-.1225-.01958-.278.22729-.352.40287-.105.24901.2932-.18278.1479.18537-.1871.47337-.3353.28846-.3365.28831-.1138-.01453.2065-.28081.2039-.28922-.0315-.10355-.141.11135-.2232.28954-.1827.39614.0405.10661-.0449.29076-.1898.40944-.2251.18415-.2448.18431-.1352.00077.0853-.1427.0718-.17956-.0402-.10966-.0927.05766-.1342.195-.0924.30497.0419.10997-.0464.29703-.1961.41572-.2535.20067-.2572.19424-.0522-.09024.1884-.26185.1887-.27745.0017-.1089-.1202.10844-.2193.31477-.2202.45854-.001.14377-.104.26154-.2292.26169-.1259.00031-.2274.13674-.2276.3059 0 .16809-.1025.30727-.2277.30941-.1252.00215-.2097.11349-.1877.24763.022.13413-.0764.33908-.2187.45548-.2209.1806-.2399.1802-.1302-.0034.0853-.1427.0718-.1795-.0402-.1096-.0927.0576-.1343.195-.0924.3049.0419.11-.0464.2971-.1961.4158-.2536.2006-.2572.1942-.0522-.0903.1884-.2618.1887-.2774.0016-.1089-.1201.1085-.2192.3148-.2201.4586-.0011.1437-.1041.2615-.2292.2617-.126.0003-.2275.1367-.2276.3059 0 .1693-.1017.3057-.2276.3059-.1259.0003-.2274.1367-.2275.3058 0 .1694-.1017.3058-.2276.3059-.1259.0004-.2274.1368-.2276.3059 0 .1694-.1016.3058-.2275.3059-.126.0003-.2275.1368-.2276.3059 0 .1693-.1017.3058-.2276.3059-.1259.0003-.2274.1368-.2275.3059 0 .1693-.1017.3058-.2276.3059-.1259.0003-.2274.1368-.2276.3059 0 .1693-.1016.3058-.2275.3059-.126.0003-.2275.1368-.2276.3059 0 .1693-.1017.3058-.2276.3059-.1259.0003-.2274.1367-.2275.3059 0 .1681-.1026.3073-.2278.3094-.1251.0022-.2096.1135-.1876.2476.022.1342-.0765.3391-.2188.4555-.1733.1417-.221.1484-.1447.0204.1661-.2787.0157-.2339-.2268.0676-.1414.1759-.1474.2219-.0186.1439.2836-.1718.2288.1396-.067.3816-.2186.1786-.2376.178-.1282-.005.0877-.1469.0722-.1798-.0493-.104-.0977.0608-.1446.1645-.1041.2304.0404.066-.0318.2504-.1605.4101-.1286.1595-.1842.1935-.1235.0752.071-.1376.0502-.1771-.0579-.1096-.0927.0576-.1343.195-.0924.305.0418.1099-.0425.297-.1874.4157-.2251.1841-.2449.1843-.1352.0007.0877-.1468.0722-.1797-.0493-.104-.0977.0609-.1446.1646-.104.2305.0403.066-.0319.2504-.1606.4101-.1286.1595-.1907.2042-.1379.0989.1376-.2739-.0006-.2357-.2447.0676-.1414.1759-.1473.222-.0185.144.2836-.1718.2288.1396-.067.3816-.2187.1786-.2376.178-.1282-.0051.0877-.1468.0722-.1797-.0493-.104-.0977.0609-.1469.1608-.1093.2221.1026.1673-.1763.5557-.399.5557-.1072 0-.1951.1375-.1952.3054 0 .1693-.1017.3058-.2276.3059-.1259.0003-.2274.1367-.2276.3059 0 .1693-.1016.3057-.2275.3059-.126.0003-.2274.1367-.2276.3059 0 .1693-.1016.3057-.2276.3059-.1259.0003-.2274.1367-.2275.3059 0 .1693-.1017.3057-.2276.3059-.1259.0003-.2274.1367-.2276.3059 0 .1693-.1016.3057-.2275.3059-.126.0003-.2275.1367-.2276.3059 0 .1693-.1017.3057-.2276.3059-.1259.0003-.2274.1367-.2275.3059 0 .1693-.1017.3057-.2276.3059-.1259.0003-.2274.1367-.2276.3063-.0001.1926-.0845.287-.2277.255-.1251-.0282-.1787-.0018-.1191.0583.1704.1717-.1766.7028-.3815.5842-.1002-.0579-.1332-.0508-.0736.0158.1664.1858-.1733.7164-.3816.596-.1001-.0579-.1332-.0508-.0735.0158.0596.0667.0402.2497-.0433.4068-.2147.4044-1.5054.4038-1.8686-.0009-.1416-.1577-.2374-.3782-.2132-.4901.0245-.1119-.0581-.2067-.1832-.2107-.1252-.0041-.2278-.1449-.2278-.3129-.0001-.1692-.1016-.3056-.2275-.3059-.1259-.0002-.2276-.1366-.2276-.3059-.0001-.1692-.1016-.3056-.2276-.3059-.1259-.0002-.2275-.1366-.2275-.3059-.0002-.1692-.1017-.3056-.2276-.3059-.1259-.0002-.2276-.1366-.2276-.3059-.0001-.168-.1025-.3071-.2275-.3091-.1252-.002-.218-.1218-.2067-.266.0114-.1444-.0362-.2268-.1062-.1832-.1673.1043-.4665-.4658-.3264-.6222.0596-.0666.0265-.0738-.0736-.0158-.2083.1204-.548-.4102-.3816-.596.0596-.0666.0266-.0738-.0736-.0158-.2049.1185-.5519-.4125-.3815-.5842.0596-.0602.0061-.0865-.1191-.0583-.1432.0319-.2276-.0624-.2277-.255-.0002-.1696-.1017-.306-.2276-.3063-.1259-.0002-.2276-.1366-.2276-.3059-.0001-.1692-.1016-.3056-.2275-.3059-.1259-.0002-.2276-.1366-.2276-.3059-.0001-.168-.088-.3055-.1952-.3055-.232 0-.4998-.3912-.3902-.57.0424-.0691-.0132-.1069-.1238-.0838-.1137.0238-.2011-.0909-.2011-.2639-.0001-.1682-.0879-.3059-.1952-.3059-.2443 0-.4975-.395-.3781-.5899.0492-.0801.014-.0986-.0781-.0413-.1956.1219-.5275-.4177-.3671-.5968.0596-.0665.0265-.0737-.0736-.0157-.205.1185-.552-.4125-.3816-.5843.0596-.0601.0061-.0864-.1191-.0583-.1432.032-.2275-.0624-.2277-.2549-.0001-.1697-.1016-.3061-.2276-.3064-.1259-.0001-.2275-.1366-.2275-.3059-.0002-.1692-.1017-.3056-.2276-.3059-.1259-.0001-.2276-.1366-.2276-.3059-.0001-.1679-.088-.3054-.1952-.3054-.232 0-.4997-.3913-.3902-.5701.0425-.0691-.0132-.1069-.1238-.0838-.1136.0239-.201-.0908-.201-.2638-.0002-.1683-.088-.3059-.1953-.3059-.2319 0-.4997-.3913-.3902-.57.0425-.0692-.0132-.107-.1238-.0839-.1136.0239-.201-.0908-.201-.2638-.0001-.1696-.1016-.306-.2276-.3064-.1259-.0001-.2275-.1365-.2275-.3059-.0002-.1691-.1017-.3055-.2276-.3058-.1252-.0002-.2283-.1158-.2294-.2569-.001-.141-.0631-.3129-.138-.3819-.0788-.0726-.0892-.0287-.0248.1039.0613.1262.0061.0988-.1226-.0607-.1286-.1597-.1914-.3596-.1394-.4443.0521-.0849.0191-.1073-.0731-.0498-.1956.1219-.5275-.4177-.3671-.5968.0596-.0665.0265-.0737-.0736-.0157-.205.1185-.5519-.41251-.3816-.58427.0596-.06011.0061-.08642-.1191-.05828-.1432.03197-.2275-.0624-.2277-.25496-.0001-.16825-.088-.3059-.1952-.3059-.2443 0-.4975-.39507-.3781-.58992.0491-.08015.0139-.09865-.0781-.0413-.1577.0982-.4383-.2545-.4713-.59237-.0083-.08412-.1002-.1531-.2046-.15341-.1042-.00015-.1898-.1378-.1898-.30589-.0002-.16916-.1017-.30559-.2276-.3059-.1259-.00015-.2275-.13658-.2275-.3059-.0002-.16916-.1017-.30559-.2276-.30589-.1259-.00016-.2276-.13659-.2276-.3059-.0001-.16916-.1016-.30559-.2275-.3059-.126-.00015-.2276-.13658-.2276-.30589-.0002-.16916-.1017-.30559-.2276-.3059-.1259-.00015-.2275-.13658-.2275-.3059-.0002-.16916-.1017-.30559-.2276-.30589-.1259-.00016-.2276-.13659-.2276-.3059-.0001-.16794-.088-.30544-.1952-.30544-.232 0-.4998-.39124-.3902-.57004.0425-.06913-.0132-.10691-.1238-.08381-.1137.02386-.201-.09085-.201-.26384-.0002-.16962-.1017-.30605-.2276-.30635-.1259-.00016-.2276-.13659-.2276-.3059-.0001-.16916-.1016-.30559-.2275-.3059-.1252-.00015-.2284-.11578-.2294-.2568-.0011-.14102-.0631-.31293-.1381-.38191-.0789-.07265-.0884-.02891-.0229.10385.0624.12619-.0237.05935-.1913-.14866s-.2708-.4333-.2294-.500908c.0413-.06745-.0152-.103852-.1258-.080757-.1112.023249-.1782-.060415-.1503-.187362.0279-.126183.0021-.180478-.0571-.120829-.0593.059803-.3164-.000154-.5713-.133066-.5076-.264601-2.1103-.3829827-1.9645-.144995zm39.1427 26.973487c2.4406.0237 6.4344.0237 8.8752 0 2.4405-.0235.4437-.0428-4.4376-.0428s-6.8781.0193-4.4376.0428zm-44.148.153c1.6064.0248 4.2348.0248 5.8409 0 1.6063-.0248.2921-.0451-2.9204-.0451s-4.5266.0203-2.9205.0451zm18.7743 6.3082c-1.0013.0619-2.3325.1288-2.9584.1485-.8696.0275-1.0484.0676-.7585.1701.2675.0945.1591.1086-.3681.0477-1.0754-.124-4.2675.0956-4.0094.2759.1402.0981.0907.1109-.1558.0404-.4915-.1403-3.2254.0775-3.1204.2487.0461.0752-.0235.0953-.1549.0445-.3104-.1201-2.5299.0889-2.4435.23.0365.0594-.1773.0793-.475.0442-.3049-.0359-.5035-.0026-.4551.0765.0485.0789-.15.1123-.4551.0765-.4115-.0485-.5124-.0168-.421.132.0779.1271.0594.158-.0525.0882-.2156-.1343-1.2626.0523-1.1673.2079.0385.0627-.1088.0797-.3272.0376-.2549-.0492-.3619-.019-.2986.0843.0625.102-.0212.1292-.2288.0745-.2438-.0643-.296-.0351-.2043.1144.0854.1393.0641.1641-.0694.0807-.2142-.1333-2.008.6654-1.8979.8452.0373.0609-.0508.1011-.196.0897-.1617-.0129-.2442.0677-.2133.2084.0279.1262.0018.1802-.0578.1201-.164-.1652-.6992.176-.5803.3701.0583.0952.0347.126-.0542.0707-.2002-.1248-1.45169 1.2297-1.32577 1.4351.05159.0841.00334.134-.10726.1109-.11105-.0233-.19161.0768-.18008.2239.01183.1513-.04839.223-.13957.1661-.10089-.0629-.12334-.0026-.06038.1626.05492.1444.03762.2236-.03854.1762-.18175-.1132-.80847 1.5821-.71623 1.9374.04309.1664.00835.2355-.08829.1753-.10241-.0638-.13245.044-.0836.301.04688.2477.0173.364-.07767.3048-.09877-.0617-.11804.0896-.05401.4253.05947.3127.04672.4387-.03201.3154-.18312-.2866-.68073 3.068-.57302 3.8638.05128.3792.03702.5056-.03656.3223-.08359-.2088-.15429.0686-.22893.8981-.58136 6.4685-.51809 16.6198.14519 23.2637.30115 3.0174.37518 3.4561.56391 3.3384.0933-.0581.10999-.0217.04141.0901-.17234.2811.0531 1.5696.25291 1.4452.10013-.0624.12182-.0319.05476.0773-.16066.2623.05492 1.114.25124.9917.09694-.0604.11864-.0294.0537.0765-.14245.2323.04279.8172.22317.7049.07662-.0479.09422.031.03914.1757-.06736.177-.04263.2269.07586.153.11833-.0737.14306-.0239.07586.1529-.07328.1921-.04613.229.10103.1374.13184-.0823.16461-.0661.09528.0469-.13912.227.34939.9717.5539.8443.08845-.0552.11378-.0257.05719.0667-.12744.2077 1.22387 1.6098 1.42847 1.4824.0829-.0517.1319-.0028.109.1087-.0229.1114.0751.1933.2178.1823.1428-.0111.2452.0577.2276.153-.0176.0951.0868.1636.2318.1522.1452-.0115.2335.0287.1962.0894-.0995.1625.9735.6427 1.1668.5222.1054-.0656.1204-.0303.0417.098-.0916.1495-.0394.1787.2044.1145.2098-.0554.2914-.0279.2275.0764-.0638.1043.0178.1317.2276.0765.2098-.0554.2914-.0278.2276.0765-.0639.1043.0177.1317.2275.0765.2076-.0548.2913-.0276.2288.0744-.0632.1033.0437.1336.2986.0843.2185-.042.3638-.022.323.0445-.1008.1644 1.2282.3547 1.4616.2093.1116-.0696.147-.0524.0883.0434-.1223.1993 1.379.4047 2.0641.2822.3355-.06.396-.0473.1923.0402-.3567.153 1.8044.3822 6.6693.7077 10.6191.7104 21.3216.6802 32.3815-.0918 1.4552-.1015 2.5343-.2245 2.3981-.2733-.1364-.0488.4137-.0963 1.2226-.1055 1.7635-.0204 5.0085-.497 4.7085-.6917-.1222-.0793.0028-.0922.3129-.0322.333.0645.483.0451.4219-.0545-.0587-.0957.0566-.1255.3023-.0783.2716.0525.3637.0217.291-.0968-.0678-.1104-.0232-.1412.1229-.0846.3274.1267 1.3285-.2338 1.2058-.4341-.0616-.1003-.029-.1196.0836-.0494.2446.1524 1.0996-.2115.975-.4149-.0564-.0919-.0238-.1129.0776-.0499.2063.1287.8301-.2682.672-.4276-.0594-.06-.0016-.0678.1284-.0174.133.0513.3303-.0248.4506-.1743.1826-.2269.1828-.2468.0007-.1362-.1456.0884-.1782.0728-.1031-.0497.0604-.0985.169-.1421.2413-.097.185.1152 1.4146-1.0953 1.301-1.2806-.0512-.0836-.0132-.2016.0845-.2625.1182-.0737.14-.0389.0652.104-.0619.1182.0288.0428.2013-.1675.1727-.2103.2819-.472.2426-.5815s-.0111-.1615.0627-.1156c.1723.1075.3498-.35.2187-.5639-.0564-.0921-.0285-.1183.0644-.0604.1989.1238.4017-.439.2483-.6892-.0639-.1042-.0432-.1369.0499-.0788.2023.126.3851-.5824.2634-1.0208-.0754-.2713-.0608-.2897.0804-.1017.1378.1832.1605.1311.1133-.2596-.0326-.269-.0113-.4592.0469-.4228.1661.1035.4943-2.3215.389-2.8749-.0718-.3771-.0554-.4409.0689-.2664.1207.1696.1449-.0297.0922-.7647-.0393-.5468-.0212-.8584.0399-.6923.2162.5869.6029-7.0991.6038-12.0025.0011-5.3834-.487-13.4398-.7731-12.7629-.0839.1985-.0962.1302-.0368-.2056.1254-.7102-.0797-2.1236-.2683-1.849-.1021.1487-.1157.1076-.0467-.1396.1177-.4208-.0564-1.5928-.2213-1.4902-.0641.04-.0823-.1076-.0406-.3279.0466-.245.0172-.3637-.0758-.3059-.0929.0578-.1223-.0609-.0759-.3059.0489-.2569.0188-.3648-.0836-.301-.1012.063-.1282-.0214-.0739-.2306.0548-.2116.0277-.2938-.0758-.2295-.1035.0644-.1308-.0178-.0759-.2294.0471-.1815.0237-.2915-.052-.2442-.0758.0471-.1482-.09-.161-.3046-.0277-.4658-1.1654-2.1221-1.4165-2.062-.0966.0231-.1347-.0251-.0845-.1071.0989-.1612-.778-.8773-.9972-.8144-.0734.0211-.1165-.0477-.0956-.153.0208-.105-.086-.1809-.2377-.1682-.1516.0125-.2373-.0156-.1905-.0627.1421-.1433-.5078-.5211-.6953-.4043-.1164.0724-.1334.041-.0507-.0936.0909-.1483.0543-.1757-.1362-.1018-.1433.0553-.2235.0407-.1786-.0326.1119-.1828-1.6707-.8385-1.9673-.7238-.1539.0595-.2008.0309-.1321-.081.0727-.1186-.0194-.1493-.291-.0968-.2184.042-.3638.022-.323-.0445.1008-.1645-1.2282-.3547-1.4616-.2093-.1266.0789-.1468.0522-.0632-.0841.0965-.1574-.0176-.1809-.5377-.1106-.363.0491-.5733.0352-.4671-.0309.3266-.2036-6.3165-.8628-7.3228-.7266-.3341.0451-.5234.0298-.4209-.0343.6481-.4038-19.6423-.7932-24.7796-.4755zm-31.70978828 26.0023c0 11.9873.01805478 16.8913.04005298 10.8976.0219981-5.9938.0219981-15.8016 0-21.7952-.0219982-5.9936-.04005298-1.0897-.04005298 10.8976zm6.65254828-4.8944c0 .6309.02685.8891.05947.5736.03277-.3154.03277-.8316 0-1.1471-.03262-.3154-.05947-.0574-.05947.5735zm68.74074 4.2061c-.0002 2.2713.0209 3.2217.0469 2.1122.0259-1.1096.0259-2.9679.0001-4.1296-.0258-1.1618-.047-.2539-.047 2.0174zm-68.74317 4.512c0 .5468.02761.7705.06114.4971.03368-.2735.03368-.7207 0-.9942-.03353-.2735-.06114-.0497-.06114.4971zm24.79417 21.3704c.2713.034.7149.034.9861 0 .2713-.0338.0493-.0616-.493-.0616-.5424 0-.7643.0278-.4931.0616zm6.9883.1569c1.3612.0253 3.5458.0253 4.8548-.0001 1.3089-.0256.1952-.0462-2.4749-.0462-2.6701.0001-3.7411.0209-2.3799.0463zm-16.3944 6.8829c3.6089.0228 9.5143.0228 13.123 0 3.609-.023.6562-.0416-6.5615-.0416-7.2176 0-10.1702.0186-6.5615.0416z"></path></g></svg></svg></g></g></svg></g></svg>